<svg width="105" height="140" viewBox="0 0 105 140" fill="none" xmlns="http://www.w3.org/2000/svg">
<path d="M23.2483 69.0469C23.2483 67.5901 21.9946 66.4102 20.4468 66.4102H6.43921C4.89137 66.4102 3.6377 67.5901 3.6377 69.0469V90.3164C3.6377 91.7732 4.89137 92.9531 6.43921 92.9531H20.4468C21.9946 92.9531 23.2483 91.7732 23.2483 90.3164V69.0469Z" fill="white"/>
<path d="M45.8472 50.5898H31.8396C30.2918 50.5898 29.0381 51.7698 29.0381 53.2266V90.3164C29.0381 91.7732 30.2918 92.9531 31.8396 92.9531H45.8472C47.395 92.9531 48.6487 91.7732 48.6487 90.3164V53.2266C48.6487 51.7698 47.395 50.5898 45.8472 50.5898Z" fill="white"/>
<path d="M71.0608 45.3164H57.0532C55.5054 45.3164 54.2517 46.4963 54.2517 47.9531V90.3164C54.2517 91.7732 55.5054 92.9531 57.0532 92.9531H71.0608C72.6086 92.9531 73.8623 91.7732 73.8623 90.3164V47.9531C73.8623 46.4963 72.6086 45.3164 71.0608 45.3164Z" fill="white"/>
<path d="M96.4612 24.2227H82.4536C80.9058 24.2227 79.6521 25.4026 79.6521 26.8594V90.3164C79.6521 91.7732 80.9058 92.9531 82.4536 92.9531H96.4612C98.009 92.9531 99.2627 91.7732 99.2627 90.3164V26.8594C99.2627 25.4026 98.009 24.2227 96.4612 24.2227Z" fill="white"/>
<path d="M13.6298 60.9609C18.2639 60.9609 22.0343 57.4124 22.0343 53.0508C22.0343 52.3098 21.8907 51.6072 21.6876 50.9271L32.603 43.675C33.9734 44.5908 35.638 45.1406 37.4426 45.1406C41.6945 45.1406 45.1812 42.1436 45.7339 38.2819L56.9108 36.067C58.3904 38.3368 61.0273 39.8672 64.057 39.8672C68.6912 39.8672 72.4615 36.3186 72.4615 31.957C72.4615 30.9023 72.2316 29.8993 71.8324 28.9786L85.2405 17.7616C86.4429 18.3862 87.8027 18.7734 89.2706 18.7734C93.9048 18.7734 97.6752 15.2249 97.6752 10.8633C97.6752 6.50171 93.9048 2.95312 89.2706 2.95312C84.6365 2.95312 80.8661 6.50171 80.8661 10.8633C80.8661 11.918 81.096 12.921 81.4953 13.8417L68.0871 25.0587C66.8848 24.4341 65.5249 24.0469 64.057 24.0469C59.8051 24.0469 56.3184 27.0439 55.7657 30.9056L44.5888 33.1205C43.1093 30.8507 40.4723 29.3203 37.4426 29.3203C32.8085 29.3203 29.0381 32.8689 29.0381 37.2305C29.0381 37.9715 29.1817 38.6741 29.3848 39.3541L18.4694 46.6062C17.099 45.6905 15.4344 45.1406 13.6298 45.1406C8.99559 45.1406 5.22522 48.6892 5.22522 53.0508C5.22522 57.4124 8.99559 60.9609 13.6298 60.9609Z" fill="white"/>
<path d="M23.1876 133H19.8596C19.4863 133 19.177 132.909 18.9316 132.728C18.697 132.536 18.5263 132.301 18.4196 132.024L16.6916 127.304H7.10763L5.37963 132.024C5.29429 132.269 5.12363 132.493 4.86763 132.696C4.62229 132.899 4.31829 133 3.95563 133H0.611625L9.69963 109.864H14.0996L23.1876 133ZM8.21163 124.264H15.5876L12.7716 116.568C12.6436 116.227 12.4996 115.827 12.3396 115.368C12.1903 114.899 12.041 114.392 11.8916 113.848C11.7423 114.392 11.593 114.899 11.4436 115.368C11.305 115.837 11.1663 116.248 11.0276 116.6L8.21163 124.264ZM46.1144 121.432C46.1144 123.128 45.8317 124.685 45.2664 126.104C44.701 127.523 43.9064 128.744 42.8824 129.768C41.8584 130.792 40.6264 131.587 39.1864 132.152C37.7464 132.717 36.1517 133 34.4024 133H25.5704V109.864H34.4024C36.1517 109.864 37.7464 110.152 39.1864 110.728C40.6264 111.293 41.8584 112.088 42.8824 113.112C43.9064 114.125 44.701 115.341 45.2664 116.76C45.8317 118.179 46.1144 119.736 46.1144 121.432ZM41.7144 121.432C41.7144 120.163 41.5437 119.027 41.2024 118.024C40.861 117.011 40.3757 116.157 39.7464 115.464C39.117 114.76 38.349 114.221 37.4424 113.848C36.5464 113.475 35.533 113.288 34.4024 113.288H29.9064V129.576H34.4024C35.533 129.576 36.5464 129.389 37.4424 129.016C38.349 128.643 39.117 128.109 39.7464 127.416C40.3757 126.712 40.861 125.859 41.2024 124.856C41.5437 123.843 41.7144 122.701 41.7144 121.432ZM64.0686 109.864V113.288H53.8126V119.704H61.8926V123.016H53.8126V129.56H64.0686V133H49.4766V109.864H64.0686ZM72.2371 124.856V133H67.9331V109.864H75.4691C77.0158 109.864 78.3545 110.045 79.4851 110.408C80.6158 110.771 81.5491 111.277 82.2851 111.928C83.0211 112.579 83.5651 113.357 83.9171 114.264C84.2691 115.171 84.4451 116.163 84.4451 117.24C84.4451 118.36 84.2585 119.389 83.8851 120.328C83.5118 121.256 82.9518 122.056 82.2051 122.728C81.4585 123.4 80.5251 123.923 79.4051 124.296C78.2851 124.669 76.9731 124.856 75.4691 124.856H72.2371ZM72.2371 121.496H75.4691C76.2585 121.496 76.9465 121.4 77.5331 121.208C78.1198 121.005 78.6051 120.723 78.9891 120.36C79.3731 119.987 79.6611 119.539 79.8531 119.016C80.0451 118.483 80.1411 117.891 80.1411 117.24C80.1411 116.621 80.0451 116.061 79.8531 115.56C79.6611 115.059 79.3731 114.632 78.9891 114.28C78.6051 113.928 78.1198 113.661 77.5331 113.48C76.9465 113.288 76.2585 113.192 75.4691 113.192H72.2371V121.496ZM104.093 109.864V113.4H97.1331V133H92.8291V113.4H85.8371V109.864H104.093Z" fill="white"/>
</svg>
