<svg width="914" height="224" viewBox="0 0 914 224" fill="none" xmlns="http://www.w3.org/2000/svg">
<path d="M18.6938 6.06969L17.9733 5.88468L18.3287 2.35494H21.9655V3.18747H19.093L18.8788 5.11544C19.0087 5.04079 19.1726 4.97101 19.3706 4.90609C19.5718 4.84118 19.8022 4.80872 20.0619 4.80872C20.3897 4.80872 20.6835 4.86552 20.9431 4.97912C21.2028 5.08948 21.4235 5.24852 21.6052 5.45624C21.7902 5.66397 21.9314 5.91389 22.0288 6.20601C22.1262 6.49813 22.1749 6.82432 22.1749 7.1846C22.1749 7.5254 22.1278 7.83862 22.0337 8.12424C21.9428 8.40987 21.8049 8.65979 21.6198 8.87401C21.4348 9.08498 21.2011 9.24889 20.9188 9.36574C20.6396 9.48258 20.3102 9.54101 19.9304 9.54101C19.6448 9.54101 19.3738 9.50206 19.1174 9.42416C18.8642 9.34302 18.637 9.2213 18.4358 9.05901C18.2378 8.89348 18.0755 8.689 17.9489 8.44557C17.8256 8.19889 17.7477 7.91002 17.7152 7.57896H18.5721C18.611 7.84511 18.6889 8.06906 18.8058 8.25083C18.9226 8.43259 19.0752 8.57053 19.2634 8.66466C19.4549 8.75554 19.6773 8.80098 19.9304 8.80098C20.1447 8.80098 20.3345 8.76365 20.5001 8.689C20.6656 8.61435 20.8052 8.50724 20.9188 8.36767C21.0324 8.2281 21.1184 8.05933 21.1768 7.86134C21.2385 7.66335 21.2693 7.44101 21.2693 7.19434C21.2693 6.97038 21.2385 6.76265 21.1768 6.57116C21.1151 6.37966 21.0226 6.2125 20.8993 6.06969C20.7792 5.92688 20.6315 5.81652 20.4562 5.73862C20.281 5.65748 20.0797 5.61691 19.8525 5.61691C19.5507 5.61691 19.3219 5.65748 19.1661 5.73862C19.0135 5.81977 18.8561 5.93012 18.6938 6.06969ZM27.6131 5.33453V6.41536C27.6131 6.99635 27.5612 7.48645 27.4573 7.88568C27.3534 8.28491 27.2041 8.60623 27.0094 8.84966C26.8147 9.09309 26.5793 9.26999 26.3034 9.38034C26.0308 9.48745 25.7225 9.54101 25.3784 9.54101C25.1058 9.54101 24.8542 9.50693 24.6238 9.43877C24.3933 9.3706 24.1856 9.26187 24.0006 9.11257C23.8188 8.96002 23.663 8.76203 23.5332 8.5186C23.4034 8.27517 23.3044 7.97981 23.2362 7.63251C23.1681 7.28522 23.134 6.8795 23.134 6.41536V5.33453C23.134 4.75354 23.1859 4.26668 23.2898 3.87395C23.3969 3.48121 23.5478 3.16638 23.7426 2.92944C23.9373 2.68925 24.171 2.51723 24.4436 2.41336C24.7195 2.3095 25.0279 2.25757 25.3687 2.25757C25.6446 2.25757 25.8977 2.29165 26.1282 2.35981C26.3619 2.42472 26.5696 2.53021 26.7514 2.67627C26.9331 2.81908 27.0873 3.01058 27.2139 3.25076C27.3437 3.4877 27.4427 3.7782 27.5109 4.12225C27.579 4.46629 27.6131 4.87039 27.6131 5.33453ZM26.7075 6.56142V5.1836C26.7075 4.86552 26.6881 4.58639 26.6491 4.3462C26.6134 4.10277 26.5599 3.89504 26.4885 3.72302C26.417 3.551 26.3262 3.41143 26.2158 3.30432C26.1087 3.19721 25.9837 3.11931 25.8409 3.07063C25.7014 3.01869 25.5439 2.99273 25.3687 2.99273C25.1545 2.99273 24.9646 3.0333 24.799 3.11444C24.6335 3.19234 24.4939 3.3173 24.3803 3.48933C24.27 3.66135 24.1856 3.88693 24.1272 4.16606C24.0688 4.4452 24.0395 4.78438 24.0395 5.1836V6.56142C24.0395 6.8795 24.0574 7.16026 24.0931 7.40369C24.132 7.64712 24.1888 7.85809 24.2635 8.03661C24.3382 8.21188 24.429 8.35631 24.5361 8.46991C24.6433 8.58351 24.7666 8.6679 24.9062 8.72308C25.049 8.77501 25.2064 8.80098 25.3784 8.80098C25.5991 8.80098 25.7922 8.75878 25.9578 8.67439C26.1233 8.59 26.2613 8.45855 26.3716 8.28004C26.4852 8.09828 26.5696 7.86621 26.6248 7.58383C26.68 7.2982 26.7075 6.9574 26.7075 6.56142ZM29.7748 1.96545V9.44363H28.8692V1.96545H29.7748ZM32.9929 4.1758L30.6949 6.63445L29.4096 7.96845L29.3366 7.00933L30.2568 5.90902L31.8926 4.1758H32.9929ZM32.1701 9.44363L30.2908 6.93143L30.7582 6.12811L33.2315 9.44363H32.1701Z" fill="#7D8FA9"/>
<path d="M22.3453 46.8682V47.6082H17.2235V47.0775L20.3978 42.1651H21.133L20.3443 43.5868L18.2459 46.8682H22.3453ZM21.3569 42.1651V49.2538H20.4562V42.1651H21.3569ZM27.6131 45.1447V46.2255C27.6131 46.8065 27.5612 47.2966 27.4573 47.6959C27.3534 48.0951 27.2041 48.4164 27.0094 48.6598C26.8147 48.9033 26.5793 49.0802 26.3034 49.1905C26.0308 49.2976 25.7225 49.3512 25.3784 49.3512C25.1058 49.3512 24.8542 49.3171 24.6238 49.2489C24.3933 49.1808 24.1856 49.0721 24.0006 48.9227C23.8188 48.7702 23.663 48.5722 23.5332 48.3288C23.4034 48.0853 23.3044 47.79 23.2362 47.4427C23.1681 47.0954 23.134 46.6897 23.134 46.2255V45.1447C23.134 44.5637 23.1859 44.0769 23.2898 43.6841C23.3969 43.2914 23.5478 42.9766 23.7426 42.7396C23.9373 42.4994 24.171 42.3274 24.4436 42.2235C24.7195 42.1197 25.0279 42.0677 25.3687 42.0677C25.6446 42.0677 25.8977 42.1018 26.1282 42.17C26.3619 42.2349 26.5696 42.3404 26.7514 42.4864C26.9331 42.6293 27.0873 42.8208 27.2139 43.0609C27.3437 43.2979 27.4427 43.5884 27.5109 43.9324C27.579 44.2765 27.6131 44.6806 27.6131 45.1447ZM26.7075 46.3716V44.9938C26.7075 44.6757 26.6881 44.3966 26.6491 44.1564C26.6134 43.913 26.5599 43.7052 26.4885 43.5332C26.417 43.3612 26.3262 43.2216 26.2158 43.1145C26.1087 43.0074 25.9837 42.9295 25.8409 42.8808C25.7014 42.8289 25.5439 42.8029 25.3687 42.8029C25.1545 42.8029 24.9646 42.8435 24.799 42.9246C24.6335 43.0025 24.4939 43.1275 24.3803 43.2995C24.27 43.4715 24.1856 43.6971 24.1272 43.9762C24.0688 44.2554 24.0395 44.5946 24.0395 44.9938V46.3716C24.0395 46.6897 24.0574 46.9704 24.0931 47.2139C24.132 47.4573 24.1888 47.6683 24.2635 47.8468C24.3382 48.0221 24.429 48.1665 24.5361 48.2801C24.6433 48.3937 24.7666 48.4781 24.9062 48.5333C25.049 48.5852 25.2064 48.6112 25.3784 48.6112C25.5991 48.6112 25.7922 48.569 25.9578 48.4846C26.1233 48.4002 26.2613 48.2687 26.3716 48.0902C26.4852 47.9085 26.5696 47.6764 26.6248 47.394C26.68 47.1084 26.7075 46.7676 26.7075 46.3716ZM29.7748 41.7756V49.2538H28.8692V41.7756H29.7748ZM32.9929 43.986L30.6949 46.4446L29.4096 47.7786L29.3366 46.8195L30.2568 45.7192L31.8926 43.986H32.9929ZM32.1701 49.2538L30.2908 46.7416L30.7582 45.9383L33.2315 49.2538H32.1701Z" fill="#7D8FA9"/>
<path d="M18.8691 85.0766H19.5117C19.8266 85.0766 20.0862 85.0247 20.2907 84.9208C20.4984 84.8137 20.6526 84.6693 20.7532 84.4875C20.8571 84.3025 20.909 84.0948 20.909 83.8643C20.909 83.5917 20.8636 83.3629 20.7727 83.1778C20.6818 82.9928 20.5455 82.8533 20.3637 82.7591C20.182 82.665 19.9515 82.618 19.6724 82.618C19.4192 82.618 19.1953 82.6683 19.0005 82.7689C18.809 82.8663 18.6581 83.0058 18.5478 83.1876C18.4406 83.3693 18.3871 83.5836 18.3871 83.8302H17.4864C17.4864 83.47 17.5773 83.1421 17.759 82.8468C17.9408 82.5514 18.1956 82.3161 18.5234 82.1408C18.8545 81.9656 19.2375 81.8779 19.6724 81.8779C20.1008 81.8779 20.4757 81.9542 20.7971 82.1068C21.1184 82.2561 21.3683 82.48 21.5468 82.7786C21.7253 83.074 21.8146 83.4424 21.8146 83.8838C21.8146 84.0623 21.7724 84.2538 21.688 84.4583C21.6069 84.6595 21.4787 84.8478 21.3034 85.0231C21.1314 85.1983 20.9074 85.3428 20.6315 85.4564C20.3556 85.5667 20.0246 85.6219 19.6383 85.6219H18.8691V85.0766ZM18.8691 85.8166V85.2762H19.6383C20.0895 85.2762 20.4627 85.3298 20.7581 85.4369C21.0535 85.544 21.2855 85.6868 21.4543 85.8653C21.6263 86.0438 21.7464 86.2402 21.8146 86.4544C21.886 86.6654 21.9217 86.8764 21.9217 87.0873C21.9217 87.4184 21.8649 87.7121 21.7513 87.9686C21.6409 88.225 21.4835 88.4424 21.279 88.621C21.0778 88.7995 20.8409 88.9342 20.5682 89.025C20.2956 89.1159 19.9986 89.1614 19.6773 89.1614C19.3689 89.1614 19.0784 89.1176 18.8058 89.0299C18.5364 88.9423 18.2978 88.8157 18.0901 88.6502C17.8824 88.4814 17.7201 88.2753 17.6032 88.0319C17.4864 87.7852 17.428 87.5044 17.428 87.1896H18.3287C18.3287 87.4363 18.3822 87.6521 18.4893 87.8371C18.5997 88.0221 18.7555 88.1665 18.9567 88.2704C19.1612 88.371 19.4014 88.4213 19.6773 88.4213C19.9532 88.4213 20.1901 88.3743 20.3881 88.2801C20.5893 88.1828 20.7435 88.0367 20.8506 87.842C20.961 87.6472 21.0161 87.4022 21.0161 87.1068C21.0161 86.8115 20.9545 86.5696 20.8311 86.3814C20.7078 86.1899 20.5325 86.0487 20.3053 85.9578C20.0814 85.8637 19.8168 85.8166 19.5117 85.8166H18.8691ZM27.6131 84.9549V86.0357C27.6131 86.6167 27.5612 87.1068 27.4573 87.506C27.3534 87.9053 27.2041 88.2266 27.0094 88.47C26.8147 88.7135 26.5793 88.8903 26.3034 89.0007C26.0308 89.1078 25.7225 89.1614 25.3784 89.1614C25.1058 89.1614 24.8542 89.1273 24.6238 89.0591C24.3933 88.991 24.1856 88.8822 24.0006 88.7329C23.8188 88.5804 23.663 88.3824 23.5332 88.139C23.4034 87.8955 23.3044 87.6002 23.2362 87.2529C23.1681 86.9056 23.134 86.4999 23.134 86.0357V84.9549C23.134 84.3739 23.1859 83.887 23.2898 83.4943C23.3969 83.1016 23.5478 82.7867 23.7426 82.5498C23.9373 82.3096 24.171 82.1376 24.4436 82.0337C24.7195 81.9299 25.0279 81.8779 25.3687 81.8779C25.6446 81.8779 25.8977 81.912 26.1282 81.9802C26.3619 82.0451 26.5696 82.1506 26.7514 82.2966C26.9331 82.4394 27.0873 82.6309 27.2139 82.8711C27.3437 83.1081 27.4427 83.3986 27.5109 83.7426C27.579 84.0867 27.6131 84.4907 27.6131 84.9549ZM26.7075 86.1818V84.804C26.7075 84.4859 26.6881 84.2067 26.6491 83.9666C26.6134 83.7231 26.5599 83.5154 26.4885 83.3434C26.417 83.1714 26.3262 83.0318 26.2158 82.9247C26.1087 82.8176 25.9837 82.7397 25.8409 82.691C25.7014 82.6391 25.5439 82.6131 25.3687 82.6131C25.1545 82.6131 24.9646 82.6537 24.799 82.7348C24.6335 82.8127 24.4939 82.9377 24.3803 83.1097C24.27 83.2817 24.1856 83.5073 24.1272 83.7864C24.0688 84.0656 24.0395 84.4047 24.0395 84.804V86.1818C24.0395 86.4999 24.0574 86.7806 24.0931 87.024C24.132 87.2675 24.1888 87.4785 24.2635 87.657C24.3382 87.8322 24.429 87.9767 24.5361 88.0903C24.6433 88.2039 24.7666 88.2883 24.9062 88.3434C25.049 88.3954 25.2064 88.4213 25.3784 88.4213C25.5991 88.4213 25.7922 88.3791 25.9578 88.2948C26.1233 88.2104 26.2613 88.0789 26.3716 87.9004C26.4852 87.7186 26.5696 87.4866 26.6248 87.2042C26.68 86.9186 26.7075 86.5778 26.7075 86.1818ZM29.7748 81.5858V89.064H28.8692V81.5858H29.7748ZM32.9929 83.7962L30.6949 86.2548L29.4096 87.5888L29.3366 86.6297L30.2568 85.5294L31.8926 83.7962H32.9929ZM32.1701 89.064L30.2908 86.5518L30.7582 85.7485L33.2315 89.064H32.1701Z" fill="#7D8FA9"/>
<path d="M22.1992 128.134V128.874H17.5594V128.227L19.8818 125.641C20.1674 125.323 20.3881 125.054 20.5439 124.833C20.7029 124.609 20.8133 124.41 20.875 124.234C20.9399 124.056 20.9723 123.874 20.9723 123.689C20.9723 123.455 20.9236 123.244 20.8263 123.056C20.7321 122.865 20.5926 122.712 20.4076 122.599C20.2226 122.485 19.9986 122.428 19.7357 122.428C19.4209 122.428 19.158 122.49 18.947 122.613C18.7393 122.733 18.5835 122.902 18.4796 123.119C18.3757 123.337 18.3238 123.587 18.3238 123.869H17.4231C17.4231 123.47 17.5107 123.105 17.686 122.774C17.8613 122.443 18.1209 122.18 18.465 121.985C18.809 121.787 19.2326 121.688 19.7357 121.688C20.1836 121.688 20.5666 121.768 20.8847 121.927C21.2028 122.082 21.4462 122.303 21.615 122.589C21.787 122.871 21.873 123.202 21.873 123.582C21.873 123.79 21.8373 124.001 21.7659 124.215C21.6977 124.426 21.602 124.637 21.4787 124.848C21.3586 125.059 21.2174 125.267 21.0551 125.471C20.896 125.676 20.7256 125.877 20.5439 126.075L18.6451 128.134H22.1992ZM27.6131 124.765V125.846C27.6131 126.427 27.5612 126.917 27.4573 127.316C27.3534 127.715 27.2041 128.037 27.0094 128.28C26.8147 128.524 26.5793 128.701 26.3034 128.811C26.0308 128.918 25.7225 128.972 25.3784 128.972C25.1058 128.972 24.8542 128.937 24.6238 128.869C24.3933 128.801 24.1856 128.692 24.0006 128.543C23.8188 128.391 23.663 128.193 23.5332 127.949C23.4034 127.706 23.3044 127.41 23.2362 127.063C23.1681 126.716 23.134 126.31 23.134 125.846V124.765C23.134 124.184 23.1859 123.697 23.2898 123.304C23.3969 122.912 23.5478 122.597 23.7426 122.36C23.9373 122.12 24.171 121.948 24.4436 121.844C24.7195 121.74 25.0279 121.688 25.3687 121.688C25.6446 121.688 25.8977 121.722 26.1282 121.79C26.3619 121.855 26.5696 121.961 26.7514 122.107C26.9331 122.25 27.0873 122.441 27.2139 122.681C27.3437 122.918 27.4427 123.209 27.5109 123.553C27.579 123.897 27.6131 124.301 27.6131 124.765ZM26.7075 125.992V124.614C26.7075 124.296 26.6881 124.017 26.6491 123.777C26.6134 123.533 26.5599 123.326 26.4885 123.154C26.417 122.982 26.3262 122.842 26.2158 122.735C26.1087 122.628 25.9837 122.55 25.8409 122.501C25.7014 122.449 25.5439 122.423 25.3687 122.423C25.1545 122.423 24.9646 122.464 24.799 122.545C24.6335 122.623 24.4939 122.748 24.3803 122.92C24.27 123.092 24.1856 123.317 24.1272 123.597C24.0688 123.876 24.0395 124.215 24.0395 124.614V125.992C24.0395 126.31 24.0574 126.591 24.0931 126.834C24.132 127.078 24.1888 127.289 24.2635 127.467C24.3382 127.642 24.429 127.787 24.5361 127.9C24.6433 128.014 24.7666 128.098 24.9062 128.154C25.049 128.206 25.2064 128.232 25.3784 128.232C25.5991 128.232 25.7922 128.189 25.9578 128.105C26.1233 128.021 26.2613 127.889 26.3716 127.711C26.4852 127.529 26.5696 127.297 26.6248 127.014C26.68 126.729 26.7075 126.388 26.7075 125.992ZM29.7748 121.396V128.874H28.8692V121.396H29.7748ZM32.9929 123.606L30.6949 126.065L29.4096 127.399L29.3366 126.44L30.2568 125.34L31.8926 123.606H32.9929ZM32.1701 128.874L30.2908 126.362L30.7582 125.559L33.2315 128.874H32.1701Z" fill="#7D8FA9"/>
<path d="M20.5147 161.557V168.684H19.614V162.681L17.798 163.343V162.53L20.3735 161.557H20.5147ZM27.6131 164.575V165.656C27.6131 166.237 27.5612 166.727 27.4573 167.126C27.3534 167.526 27.2041 167.847 27.0094 168.09C26.8147 168.334 26.5793 168.511 26.3034 168.621C26.0308 168.728 25.7225 168.782 25.3784 168.782C25.1058 168.782 24.8542 168.748 24.6238 168.679C24.3933 168.611 24.1856 168.503 24.0006 168.353C23.8188 168.201 23.663 168.003 23.5332 167.759C23.4034 167.516 23.3044 167.221 23.2362 166.873C23.1681 166.526 23.134 166.12 23.134 165.656V164.575C23.134 163.994 23.1859 163.507 23.2898 163.115C23.3969 162.722 23.5478 162.407 23.7426 162.17C23.9373 161.93 24.171 161.758 24.4436 161.654C24.7195 161.55 25.0279 161.498 25.3687 161.498C25.6446 161.498 25.8977 161.532 26.1282 161.601C26.3619 161.665 26.5696 161.771 26.7514 161.917C26.9331 162.06 27.0873 162.251 27.2139 162.491C27.3437 162.728 27.4427 163.019 27.5109 163.363C27.579 163.707 27.6131 164.111 27.6131 164.575ZM26.7075 165.802V164.424C26.7075 164.106 26.6881 163.827 26.6491 163.587C26.6134 163.343 26.5599 163.136 26.4885 162.964C26.417 162.792 26.3262 162.652 26.2158 162.545C26.1087 162.438 25.9837 162.36 25.8409 162.311C25.7014 162.259 25.5439 162.233 25.3687 162.233C25.1545 162.233 24.9646 162.274 24.799 162.355C24.6335 162.433 24.4939 162.558 24.3803 162.73C24.27 162.902 24.1856 163.128 24.1272 163.407C24.0688 163.686 24.0395 164.025 24.0395 164.424V165.802C24.0395 166.12 24.0574 166.401 24.0931 166.644C24.132 166.888 24.1888 167.099 24.2635 167.277C24.3382 167.453 24.429 167.597 24.5361 167.711C24.6433 167.824 24.7666 167.909 24.9062 167.964C25.049 168.016 25.2064 168.042 25.3784 168.042C25.5991 168.042 25.7922 168 25.9578 167.915C26.1233 167.831 26.2613 167.699 26.3716 167.521C26.4852 167.339 26.5696 167.107 26.6248 166.825C26.68 166.539 26.7075 166.198 26.7075 165.802ZM29.7748 161.206V168.684H28.8692V161.206H29.7748ZM32.9929 163.417L30.6949 165.875L29.4096 167.209L29.3366 166.25L30.2568 165.15L31.8926 163.417H32.9929ZM32.1701 168.684L30.2908 166.172L30.7582 165.369L33.2315 168.684H32.1701Z" fill="#7D8FA9"/>
<path d="M27.6131 204.385V205.466C27.6131 206.047 27.5612 206.537 27.4573 206.937C27.3534 207.336 27.2041 207.657 27.0094 207.901C26.8147 208.144 26.5793 208.321 26.3034 208.431C26.0308 208.538 25.7225 208.592 25.3784 208.592C25.1058 208.592 24.8542 208.558 24.6238 208.49C24.3933 208.421 24.1856 208.313 24.0006 208.163C23.8188 208.011 23.663 207.813 23.5332 207.569C23.4034 207.326 23.3044 207.031 23.2362 206.683C23.1681 206.336 23.134 205.93 23.134 205.466V204.385C23.134 203.804 23.1859 203.318 23.2898 202.925C23.3969 202.532 23.5478 202.217 23.7426 201.98C23.9373 201.74 24.171 201.568 24.4436 201.464C24.7195 201.36 25.0279 201.308 25.3687 201.308C25.6446 201.308 25.8977 201.343 26.1282 201.411C26.3619 201.476 26.5696 201.581 26.7514 201.727C26.9331 201.87 27.0873 202.061 27.2139 202.302C27.3437 202.539 27.4427 202.829 27.5109 203.173C27.579 203.517 27.6131 203.921 27.6131 204.385ZM26.7075 205.612V204.234C26.7075 203.916 26.6881 203.637 26.6491 203.397C26.6134 203.154 26.5599 202.946 26.4885 202.774C26.417 202.602 26.3262 202.462 26.2158 202.355C26.1087 202.248 25.9837 202.17 25.8409 202.121C25.7014 202.07 25.5439 202.044 25.3687 202.044C25.1545 202.044 24.9646 202.084 24.799 202.165C24.6335 202.243 24.4939 202.368 24.3803 202.54C24.27 202.712 24.1856 202.938 24.1272 203.217C24.0688 203.496 24.0395 203.835 24.0395 204.234V205.612C24.0395 205.93 24.0574 206.211 24.0931 206.455C24.132 206.698 24.1888 206.909 24.2635 207.087C24.3382 207.263 24.429 207.407 24.5361 207.521C24.6433 207.634 24.7666 207.719 24.9062 207.774C25.049 207.826 25.2064 207.852 25.3784 207.852C25.5991 207.852 25.7922 207.81 25.9578 207.725C26.1233 207.641 26.2613 207.509 26.3716 207.331C26.4852 207.149 26.5696 206.917 26.6248 206.635C26.68 206.349 26.7075 206.008 26.7075 205.612ZM29.7748 201.016V208.495H28.8692V201.016H29.7748ZM32.9929 203.227L30.6949 205.685L29.4096 207.019L29.3366 206.06L30.2568 204.96L31.8926 203.227H32.9929ZM32.1701 208.495L30.2908 205.982L30.7582 205.179L33.2315 208.495H32.1701Z" fill="#7D8FA9"/>
<mask id="path-7-inside-1_64_113" fill="white">
<path d="M39.8835 6.26001H894.058V46.1436H39.8835V6.26001Z"/>
</mask>
<path d="M39.8835 6.26001H894.058V46.1436H39.8835V6.26001Z" fill="#1D232C"/>
<path d="M39.8835 7.09092H894.058V5.4291H39.8835V7.09092Z" fill="#3B4758" mask="url(#path-7-inside-1_64_113)"/>
<mask id="path-9-inside-2_64_113" fill="white">
<path d="M39.8835 46.1436H894.058V86.0273H39.8835V46.1436Z"/>
</mask>
<path d="M39.8835 46.1436H894.058V86.0273H39.8835V46.1436Z" fill="#1D232C"/>
<path d="M39.8835 46.9746H894.058V45.3127H39.8835V46.9746Z" fill="#3B4758" mask="url(#path-9-inside-2_64_113)"/>
<mask id="path-11-inside-3_64_113" fill="white">
<path d="M39.8835 86.0273H894.058V125.911H39.8835V86.0273Z"/>
</mask>
<path d="M39.8835 86.0273H894.058V125.911H39.8835V86.0273Z" fill="#1D232C"/>
<path d="M39.8835 86.8582H894.058V85.1964H39.8835V86.8582Z" fill="#3B4758" mask="url(#path-11-inside-3_64_113)"/>
<mask id="path-13-inside-4_64_113" fill="white">
<path d="M39.8835 125.911H894.058V165.795H39.8835V125.911Z"/>
</mask>
<path d="M39.8835 125.911H894.058V165.795H39.8835V125.911Z" fill="#1D232C"/>
<path d="M39.8835 126.742H894.058V125.08H39.8835V126.742Z" fill="#3B4758" mask="url(#path-13-inside-4_64_113)"/>
<mask id="path-15-inside-5_64_113" fill="white">
<path d="M39.8835 165.795H894.058V205.678H39.8835V165.795Z"/>
</mask>
<path d="M39.8835 165.795H894.058V205.678H39.8835V165.795Z" fill="#1D232C"/>
<path d="M39.8835 166.625H894.058V164.964H39.8835V166.625ZM894.058 204.847H39.8835V206.509H894.058V204.847Z" fill="#3B4758" mask="url(#path-15-inside-5_64_113)"/>
<path d="M39.8835 142.806C39.8835 142.806 125.301 108.683 182.246 93.1731C239.191 77.6628 267.663 65.2545 324.608 65.2545C381.553 65.2545 410.026 105.581 466.971 105.581C523.916 105.581 552.388 28.0298 609.333 28.0298C666.278 28.0298 694.751 55.9484 751.696 55.9484C808.641 55.9484 894.058 18.7236 894.058 18.7236V204.847C894.058 204.847 808.641 204.847 751.696 204.847C694.751 204.847 666.278 204.847 609.333 204.847C552.388 204.847 523.916 204.847 466.971 204.847C410.026 204.847 381.553 204.847 324.608 204.847C267.663 204.847 239.191 204.847 182.246 204.847C125.301 204.847 39.8835 204.847 39.8835 204.847V142.806Z" fill="url(#paint0_linear_64_113)" fill-opacity="0.6"/>
<path d="M39.8835 143.319C39.8835 143.319 125.301 109.055 182.246 93.4807C239.191 77.9063 267.663 65.4468 324.608 65.4468C381.553 65.4468 410.026 105.94 466.971 105.94C523.916 105.94 552.388 28.0683 609.333 28.0683C666.278 28.0683 694.751 56.1022 751.696 56.1022C808.641 56.1022 894.058 18.7236 894.058 18.7236" stroke="#00A3FF" stroke-width="2.49273"/>
<path d="M45.2992 216.385V217.466C45.2992 218.047 45.2473 218.537 45.1434 218.937C45.0395 219.336 44.8902 219.657 44.6955 219.901C44.5007 220.144 44.2654 220.321 43.9895 220.431C43.7169 220.538 43.4085 220.592 43.0645 220.592C42.7919 220.592 42.5403 220.558 42.3099 220.49C42.0794 220.421 41.8717 220.313 41.6867 220.163C41.5049 220.011 41.3491 219.813 41.2193 219.569C41.0895 219.326 40.9905 219.031 40.9223 218.683C40.8542 218.336 40.8201 217.93 40.8201 217.466V216.385C40.8201 215.804 40.872 215.318 40.9759 214.925C41.083 214.532 41.2339 214.217 41.4286 213.98C41.6234 213.74 41.8571 213.568 42.1297 213.464C42.4056 213.36 42.714 213.308 43.0548 213.308C43.3307 213.308 43.5838 213.343 43.8143 213.411C44.048 213.476 44.2557 213.581 44.4374 213.727C44.6192 213.87 44.7734 214.061 44.9 214.302C45.0298 214.539 45.1288 214.829 45.197 215.173C45.2651 215.517 45.2992 215.921 45.2992 216.385ZM44.3936 217.612V216.234C44.3936 215.916 44.3742 215.637 44.3352 215.397C44.2995 215.154 44.2459 214.946 44.1745 214.774C44.1031 214.602 44.0123 214.462 43.9019 214.355C43.7948 214.248 43.6698 214.17 43.527 214.121C43.3875 214.07 43.23 214.044 43.0548 214.044C42.8405 214.044 42.6507 214.084 42.4851 214.165C42.3196 214.243 42.18 214.368 42.0664 214.54C41.9561 214.712 41.8717 214.938 41.8133 215.217C41.7548 215.496 41.7256 215.835 41.7256 216.234V217.612C41.7256 217.93 41.7435 218.211 41.7792 218.455C41.8181 218.698 41.8749 218.909 41.9496 219.087C42.0242 219.263 42.1151 219.407 42.2222 219.521C42.3293 219.634 42.4527 219.719 42.5922 219.774C42.7351 219.826 42.8925 219.852 43.0645 219.852C43.2852 219.852 43.4783 219.81 43.6439 219.725C43.8094 219.641 43.9473 219.509 44.0577 219.331C44.1713 219.149 44.2557 218.917 44.3109 218.635C44.366 218.349 44.3936 218.008 44.3936 217.612ZM49.418 213.367V220.495H48.5173V214.492L46.7014 215.154V214.341L49.2768 213.367H49.418ZM60.2263 213.406V220.495H59.2818L55.7131 215.027V220.495H54.7735V213.406H55.7131L59.2964 218.888V213.406H60.2263ZM61.5165 217.919V217.807C61.5165 217.427 61.5717 217.075 61.6821 216.751C61.7924 216.423 61.9515 216.139 62.1592 215.899C62.3669 215.655 62.6185 215.467 62.9138 215.334C63.2092 215.197 63.5402 215.129 63.907 215.129C64.277 215.129 64.6097 215.197 64.9051 215.334C65.2037 215.467 65.4568 215.655 65.6646 215.899C65.8756 216.139 66.0362 216.423 66.1466 216.751C66.2569 217.075 66.3121 217.427 66.3121 217.807V217.919C66.3121 218.299 66.2569 218.651 66.1466 218.976C66.0362 219.3 65.8756 219.584 65.6646 219.828C65.4568 220.068 65.2053 220.256 64.9099 220.392C64.6178 220.525 64.2868 220.592 63.9167 220.592C63.5467 220.592 63.214 220.525 62.9187 220.392C62.6233 220.256 62.3702 220.068 62.1592 219.828C61.9515 219.584 61.7924 219.3 61.6821 218.976C61.5717 218.651 61.5165 218.299 61.5165 217.919ZM62.4172 217.807V217.919C62.4172 218.182 62.4481 218.43 62.5097 218.664C62.5714 218.894 62.6639 219.099 62.7872 219.277C62.9138 219.456 63.0712 219.597 63.2595 219.701C63.4477 219.802 63.6668 219.852 63.9167 219.852C64.1634 219.852 64.3793 219.802 64.5643 219.701C64.7525 219.597 64.9083 219.456 65.0317 219.277C65.155 219.099 65.2475 218.894 65.3092 218.664C65.3741 218.43 65.4065 218.182 65.4065 217.919V217.807C65.4065 217.547 65.3741 217.302 65.3092 217.072C65.2475 216.838 65.1534 216.632 65.0268 216.454C64.9035 216.272 64.7477 216.129 64.5594 216.025C64.3744 215.921 64.1569 215.869 63.907 215.869C63.6603 215.869 63.4429 215.921 63.2546 216.025C63.0696 216.129 62.9138 216.272 62.7872 216.454C62.6639 216.632 62.5714 216.838 62.5097 217.072C62.4481 217.302 62.4172 217.547 62.4172 217.807ZM68.9655 219.681L70.4066 215.227H71.3268L69.4329 220.495H68.8292L68.9655 219.681ZM67.7629 215.227L69.2479 219.706L69.3501 220.495H68.7464L66.8379 215.227H67.7629Z" fill="#7D8FA9"/>
<path d="M182.328 216.385V217.466C182.328 218.047 182.276 218.537 182.172 218.937C182.069 219.336 181.919 219.657 181.725 219.901C181.53 220.144 181.294 220.321 181.019 220.431C180.746 220.538 180.438 220.592 180.094 220.592C179.821 220.592 179.569 220.558 179.339 220.49C179.108 220.421 178.901 220.313 178.716 220.163C178.534 220.011 178.378 219.813 178.248 219.569C178.119 219.326 178.02 219.031 177.951 218.683C177.883 218.336 177.849 217.93 177.849 217.466V216.385C177.849 215.804 177.901 215.318 178.005 214.925C178.112 214.532 178.263 214.217 178.458 213.98C178.652 213.74 178.886 213.568 179.159 213.464C179.435 213.36 179.743 213.308 180.084 213.308C180.36 213.308 180.613 213.343 180.843 213.411C181.077 213.476 181.285 213.581 181.467 213.727C181.648 213.87 181.802 214.061 181.929 214.302C182.059 214.539 182.158 214.829 182.226 215.173C182.294 215.517 182.328 215.921 182.328 216.385ZM181.423 217.612V216.234C181.423 215.916 181.403 215.637 181.364 215.397C181.329 215.154 181.275 214.946 181.204 214.774C181.132 214.602 181.041 214.462 180.931 214.355C180.824 214.248 180.699 214.17 180.556 214.121C180.417 214.07 180.259 214.044 180.084 214.044C179.87 214.044 179.68 214.084 179.514 214.165C179.349 214.243 179.209 214.368 179.095 214.54C178.985 214.712 178.901 214.938 178.842 215.217C178.784 215.496 178.755 215.835 178.755 216.234V217.612C178.755 217.93 178.773 218.211 178.808 218.455C178.847 218.698 178.904 218.909 178.979 219.087C179.053 219.263 179.144 219.407 179.251 219.521C179.358 219.634 179.482 219.719 179.621 219.774C179.764 219.826 179.922 219.852 180.094 219.852C180.314 219.852 180.507 219.81 180.673 219.725C180.838 219.641 180.976 219.509 181.087 219.331C181.2 219.149 181.285 218.917 181.34 218.635C181.395 218.349 181.423 218.008 181.423 217.612ZM188.132 219.754V220.495H183.492V219.847L185.814 217.262C186.1 216.944 186.321 216.674 186.476 216.454C186.635 216.23 186.746 216.03 186.807 215.855C186.872 215.676 186.905 215.494 186.905 215.309C186.905 215.076 186.856 214.865 186.759 214.677C186.665 214.485 186.525 214.332 186.34 214.219C186.155 214.105 185.931 214.048 185.668 214.048C185.353 214.048 185.09 214.11 184.879 214.233C184.672 214.354 184.516 214.522 184.412 214.74C184.308 214.957 184.256 215.207 184.256 215.49H183.356C183.356 215.09 183.443 214.725 183.618 214.394C183.794 214.063 184.053 213.8 184.397 213.605C184.741 213.407 185.165 213.308 185.668 213.308C186.116 213.308 186.499 213.388 186.817 213.547C187.135 213.703 187.379 213.924 187.547 214.209C187.719 214.492 187.805 214.823 187.805 215.202C187.805 215.41 187.77 215.621 187.698 215.835C187.63 216.046 187.534 216.257 187.411 216.468C187.291 216.679 187.15 216.887 186.988 217.091C186.828 217.296 186.658 217.497 186.476 217.695L184.578 219.754H188.132ZM197.255 213.406V220.495H196.311L192.742 215.027V220.495H191.803V213.406H192.742L196.325 218.888V213.406H197.255ZM198.546 217.919V217.807C198.546 217.427 198.601 217.075 198.711 216.751C198.821 216.423 198.981 216.139 199.188 215.899C199.396 215.655 199.648 215.467 199.943 215.334C200.238 215.197 200.569 215.129 200.936 215.129C201.306 215.129 201.639 215.197 201.934 215.334C202.233 215.467 202.486 215.655 202.694 215.899C202.905 216.139 203.065 216.423 203.176 216.751C203.286 217.075 203.341 217.427 203.341 217.807V217.919C203.341 218.299 203.286 218.651 203.176 218.976C203.065 219.3 202.905 219.584 202.694 219.828C202.486 220.068 202.234 220.256 201.939 220.392C201.647 220.525 201.316 220.592 200.946 220.592C200.576 220.592 200.243 220.525 199.948 220.392C199.652 220.256 199.399 220.068 199.188 219.828C198.981 219.584 198.821 219.3 198.711 218.976C198.601 218.651 198.546 218.299 198.546 217.919ZM199.446 217.807V217.919C199.446 218.182 199.477 218.43 199.539 218.664C199.6 218.894 199.693 219.099 199.816 219.277C199.943 219.456 200.1 219.597 200.289 219.701C200.477 219.802 200.696 219.852 200.946 219.852C201.192 219.852 201.408 219.802 201.593 219.701C201.782 219.597 201.937 219.456 202.061 219.277C202.184 219.099 202.277 218.894 202.338 218.664C202.403 218.43 202.436 218.182 202.436 217.919V217.807C202.436 217.547 202.403 217.302 202.338 217.072C202.277 216.838 202.182 216.632 202.056 216.454C201.933 216.272 201.777 216.129 201.588 216.025C201.403 215.921 201.186 215.869 200.936 215.869C200.689 215.869 200.472 215.921 200.284 216.025C200.099 216.129 199.943 216.272 199.816 216.454C199.693 216.632 199.6 216.838 199.539 217.072C199.477 217.302 199.446 217.547 199.446 217.807ZM205.995 219.681L207.436 215.227H208.356L206.462 220.495H205.858L205.995 219.681ZM204.792 215.227L206.277 219.706L206.379 220.495H205.775L203.867 215.227H204.792Z" fill="#7D8FA9"/>
<path d="M319.357 216.385V217.466C319.357 218.047 319.305 218.537 319.202 218.937C319.098 219.336 318.948 219.657 318.754 219.901C318.559 220.144 318.324 220.321 318.048 220.431C317.775 220.538 317.467 220.592 317.123 220.592C316.85 220.592 316.598 220.558 316.368 220.49C316.138 220.421 315.93 220.313 315.745 220.163C315.563 220.011 315.407 219.813 315.277 219.569C315.148 219.326 315.049 219.031 314.98 218.683C314.912 218.336 314.878 217.93 314.878 217.466V216.385C314.878 215.804 314.93 215.318 315.034 214.925C315.141 214.532 315.292 214.217 315.487 213.98C315.681 213.74 315.915 213.568 316.188 213.464C316.464 213.36 316.772 213.308 317.113 213.308C317.389 213.308 317.642 213.343 317.872 213.411C318.106 213.476 318.314 213.581 318.496 213.727C318.677 213.87 318.831 214.061 318.958 214.302C319.088 214.539 319.187 214.829 319.255 215.173C319.323 215.517 319.357 215.921 319.357 216.385ZM318.452 217.612V216.234C318.452 215.916 318.432 215.637 318.393 215.397C318.358 215.154 318.304 214.946 318.233 214.774C318.161 214.602 318.07 214.462 317.96 214.355C317.853 214.248 317.728 214.17 317.585 214.121C317.446 214.07 317.288 214.044 317.113 214.044C316.899 214.044 316.709 214.084 316.543 214.165C316.378 214.243 316.238 214.368 316.125 214.54C316.014 214.712 315.93 214.938 315.871 215.217C315.813 215.496 315.784 215.835 315.784 216.234V217.612C315.784 217.93 315.802 218.211 315.837 218.455C315.876 218.698 315.933 218.909 316.008 219.087C316.082 219.263 316.173 219.407 316.28 219.521C316.387 219.634 316.511 219.719 316.65 219.774C316.793 219.826 316.951 219.852 317.123 219.852C317.343 219.852 317.536 219.81 317.702 219.725C317.868 219.641 318.005 219.509 318.116 219.331C318.229 219.149 318.314 218.917 318.369 218.635C318.424 218.349 318.452 218.008 318.452 217.612ZM321.831 216.507H322.473C322.788 216.507 323.048 216.455 323.252 216.351C323.46 216.244 323.614 216.1 323.715 215.918C323.819 215.733 323.87 215.525 323.87 215.295C323.87 215.022 323.825 214.793 323.734 214.608C323.643 214.423 323.507 214.284 323.325 214.19C323.143 214.096 322.913 214.048 322.634 214.048C322.381 214.048 322.157 214.099 321.962 214.199C321.771 214.297 321.62 214.436 321.509 214.618C321.402 214.8 321.349 215.014 321.349 215.261H320.448C320.448 214.9 320.539 214.573 320.721 214.277C320.902 213.982 321.157 213.747 321.485 213.571C321.816 213.396 322.199 213.308 322.634 213.308C323.062 213.308 323.437 213.385 323.759 213.537C324.08 213.687 324.33 213.911 324.508 214.209C324.687 214.504 324.776 214.873 324.776 215.314C324.776 215.493 324.734 215.684 324.649 215.889C324.568 216.09 324.44 216.278 324.265 216.454C324.093 216.629 323.869 216.773 323.593 216.887C323.317 216.997 322.986 217.052 322.6 217.052H321.831V216.507ZM321.831 217.247V216.707H322.6C323.051 216.707 323.424 216.76 323.72 216.867C324.015 216.975 324.247 217.117 324.416 217.296C324.588 217.474 324.708 217.671 324.776 217.885C324.847 218.096 324.883 218.307 324.883 218.518C324.883 218.849 324.826 219.143 324.713 219.399C324.602 219.655 324.445 219.873 324.241 220.051C324.039 220.23 323.802 220.365 323.53 220.456C323.257 220.546 322.96 220.592 322.639 220.592C322.33 220.592 322.04 220.548 321.767 220.46C321.498 220.373 321.259 220.246 321.052 220.081C320.844 219.912 320.682 219.706 320.565 219.462C320.448 219.216 320.389 218.935 320.389 218.62H321.29C321.29 218.867 321.344 219.083 321.451 219.268C321.561 219.453 321.717 219.597 321.918 219.701C322.123 219.802 322.363 219.852 322.639 219.852C322.915 219.852 323.152 219.805 323.35 219.711C323.551 219.613 323.705 219.467 323.812 219.272C323.922 219.078 323.978 218.833 323.978 218.537C323.978 218.242 323.916 218 323.793 217.812C323.669 217.62 323.494 217.479 323.267 217.388C323.043 217.294 322.778 217.247 322.473 217.247H321.831ZM334.284 213.406V220.495H333.34L329.771 215.027V220.495H328.832V213.406H329.771L333.355 218.888V213.406H334.284ZM335.575 217.919V217.807C335.575 217.427 335.63 217.075 335.74 216.751C335.851 216.423 336.01 216.139 336.217 215.899C336.425 215.655 336.677 215.467 336.972 215.334C337.267 215.197 337.598 215.129 337.965 215.129C338.335 215.129 338.668 215.197 338.963 215.334C339.262 215.467 339.515 215.655 339.723 215.899C339.934 216.139 340.094 216.423 340.205 216.751C340.315 217.075 340.37 217.427 340.37 217.807V217.919C340.37 218.299 340.315 218.651 340.205 218.976C340.094 219.3 339.934 219.584 339.723 219.828C339.515 220.068 339.263 220.256 338.968 220.392C338.676 220.525 338.345 220.592 337.975 220.592C337.605 220.592 337.272 220.525 336.977 220.392C336.681 220.256 336.428 220.068 336.217 219.828C336.01 219.584 335.851 219.3 335.74 218.976C335.63 218.651 335.575 218.299 335.575 217.919ZM336.475 217.807V217.919C336.475 218.182 336.506 218.43 336.568 218.664C336.629 218.894 336.722 219.099 336.845 219.277C336.972 219.456 337.129 219.597 337.318 219.701C337.506 219.802 337.725 219.852 337.975 219.852C338.222 219.852 338.437 219.802 338.622 219.701C338.811 219.597 338.966 219.456 339.09 219.277C339.213 219.099 339.306 218.894 339.367 218.664C339.432 218.43 339.465 218.182 339.465 217.919V217.807C339.465 217.547 339.432 217.302 339.367 217.072C339.306 216.838 339.211 216.632 339.085 216.454C338.962 216.272 338.806 216.129 338.618 216.025C338.433 215.921 338.215 215.869 337.965 215.869C337.718 215.869 337.501 215.921 337.313 216.025C337.128 216.129 336.972 216.272 336.845 216.454C336.722 216.632 336.629 216.838 336.568 217.072C336.506 217.302 336.475 217.547 336.475 217.807ZM343.024 219.681L344.465 215.227H345.385L343.491 220.495H342.887L343.024 219.681ZM341.821 215.227L343.306 219.706L343.408 220.495H342.805L340.896 215.227H341.821Z" fill="#7D8FA9"/>
<path d="M456.386 216.385V217.466C456.386 218.047 456.334 218.537 456.231 218.937C456.127 219.336 455.977 219.657 455.783 219.901C455.588 220.144 455.353 220.321 455.077 220.431C454.804 220.538 454.496 220.592 454.152 220.592C453.879 220.592 453.627 220.558 453.397 220.49C453.167 220.421 452.959 220.313 452.774 220.163C452.592 220.011 452.436 219.813 452.306 219.569C452.177 219.326 452.078 219.031 452.009 218.683C451.941 218.336 451.907 217.93 451.907 217.466V216.385C451.907 215.804 451.959 215.318 452.063 214.925C452.17 214.532 452.321 214.217 452.516 213.98C452.711 213.74 452.944 213.568 453.217 213.464C453.493 213.36 453.801 213.308 454.142 213.308C454.418 213.308 454.671 213.343 454.901 213.411C455.135 213.476 455.343 213.581 455.525 213.727C455.706 213.87 455.861 214.061 455.987 214.302C456.117 214.539 456.216 214.829 456.284 215.173C456.352 215.517 456.386 215.921 456.386 216.385ZM455.481 217.612V216.234C455.481 215.916 455.461 215.637 455.422 215.397C455.387 215.154 455.333 214.946 455.262 214.774C455.19 214.602 455.099 214.462 454.989 214.355C454.882 214.248 454.757 214.17 454.614 214.121C454.475 214.07 454.317 214.044 454.142 214.044C453.928 214.044 453.738 214.084 453.572 214.165C453.407 214.243 453.267 214.368 453.154 214.54C453.043 214.712 452.959 214.938 452.9 215.217C452.842 215.496 452.813 215.835 452.813 216.234V217.612C452.813 217.93 452.831 218.211 452.866 218.455C452.905 218.698 452.962 218.909 453.037 219.087C453.111 219.263 453.202 219.407 453.309 219.521C453.416 219.634 453.54 219.719 453.679 219.774C453.822 219.826 453.98 219.852 454.152 219.852C454.372 219.852 454.565 219.81 454.731 219.725C454.897 219.641 455.034 219.509 455.145 219.331C455.258 219.149 455.343 218.917 455.398 218.635C455.453 218.349 455.481 218.008 455.481 217.612ZM462.336 218.109V218.849H457.214V218.318L460.388 213.406H461.124L460.335 214.827L458.236 218.109H462.336ZM461.347 213.406V220.495H460.447V213.406H461.347ZM471.314 213.406V220.495H470.369L466.8 215.027V220.495H465.861V213.406H466.8L470.384 218.888V213.406H471.314ZM472.604 217.919V217.807C472.604 217.427 472.659 217.075 472.769 216.751C472.88 216.423 473.039 216.139 473.246 215.899C473.454 215.655 473.706 215.467 474.001 215.334C474.296 215.197 474.627 215.129 474.994 215.129C475.364 215.129 475.697 215.197 475.992 215.334C476.291 215.467 476.544 215.655 476.752 215.899C476.963 216.139 477.123 216.423 477.234 216.751C477.344 217.075 477.399 217.427 477.399 217.807V217.919C477.399 218.299 477.344 218.651 477.234 218.976C477.123 219.3 476.963 219.584 476.752 219.828C476.544 220.068 476.292 220.256 475.997 220.392C475.705 220.525 475.374 220.592 475.004 220.592C474.634 220.592 474.301 220.525 474.006 220.392C473.71 220.256 473.457 220.068 473.246 219.828C473.039 219.584 472.88 219.3 472.769 218.976C472.659 218.651 472.604 218.299 472.604 217.919ZM473.504 217.807V217.919C473.504 218.182 473.535 218.43 473.597 218.664C473.659 218.894 473.751 219.099 473.874 219.277C474.001 219.456 474.158 219.597 474.347 219.701C474.535 219.802 474.754 219.852 475.004 219.852C475.251 219.852 475.466 219.802 475.651 219.701C475.84 219.597 475.995 219.456 476.119 219.277C476.242 219.099 476.335 218.894 476.396 218.664C476.461 218.43 476.494 218.182 476.494 217.919V217.807C476.494 217.547 476.461 217.302 476.396 217.072C476.335 216.838 476.241 216.632 476.114 216.454C475.991 216.272 475.835 216.129 475.647 216.025C475.462 215.921 475.244 215.869 474.994 215.869C474.747 215.869 474.53 215.921 474.342 216.025C474.157 216.129 474.001 216.272 473.874 216.454C473.751 216.632 473.659 216.838 473.597 217.072C473.535 217.302 473.504 217.547 473.504 217.807ZM480.053 219.681L481.494 215.227H482.414L480.52 220.495H479.916L480.053 219.681ZM478.85 215.227L480.335 219.706L480.437 220.495H479.834L477.925 215.227H478.85Z" fill="#7D8FA9"/>
<path d="M593.416 216.385V217.466C593.416 218.047 593.364 218.537 593.26 218.937C593.156 219.336 593.007 219.657 592.812 219.901C592.617 220.144 592.382 220.321 592.106 220.431C591.833 220.538 591.525 220.592 591.181 220.592C590.908 220.592 590.657 220.558 590.426 220.49C590.196 220.421 589.988 220.313 589.803 220.163C589.621 220.011 589.466 219.813 589.336 219.569C589.206 219.326 589.107 219.031 589.039 218.683C588.971 218.336 588.937 217.93 588.937 217.466V216.385C588.937 215.804 588.988 215.318 589.092 214.925C589.199 214.532 589.35 214.217 589.545 213.98C589.74 213.74 589.974 213.568 590.246 213.464C590.522 213.36 590.83 213.308 591.171 213.308C591.447 213.308 591.7 213.343 591.931 213.411C592.164 213.476 592.372 213.581 592.554 213.727C592.736 213.87 592.89 214.061 593.016 214.302C593.146 214.539 593.245 214.829 593.313 215.173C593.382 215.517 593.416 215.921 593.416 216.385ZM592.51 217.612V216.234C592.51 215.916 592.491 215.637 592.452 215.397C592.416 215.154 592.362 214.946 592.291 214.774C592.22 214.602 592.129 214.462 592.018 214.355C591.911 214.248 591.786 214.17 591.643 214.121C591.504 214.07 591.346 214.044 591.171 214.044C590.957 214.044 590.767 214.084 590.602 214.165C590.436 214.243 590.296 214.368 590.183 214.54C590.073 214.712 589.988 214.938 589.93 215.217C589.871 215.496 589.842 215.835 589.842 216.234V217.612C589.842 217.93 589.86 218.211 589.896 218.455C589.935 218.698 589.991 218.909 590.066 219.087C590.141 219.263 590.232 219.407 590.339 219.521C590.446 219.634 590.569 219.719 590.709 219.774C590.852 219.826 591.009 219.852 591.181 219.852C591.402 219.852 591.595 219.81 591.76 219.725C591.926 219.641 592.064 219.509 592.174 219.331C592.288 219.149 592.372 218.917 592.427 218.635C592.482 218.349 592.51 218.008 592.51 217.612ZM595.714 217.121L594.993 216.936L595.348 213.406H598.985V214.238H596.113L595.899 216.166C596.028 216.092 596.192 216.022 596.39 215.957C596.592 215.892 596.822 215.86 597.082 215.86C597.41 215.86 597.703 215.916 597.963 216.03C598.223 216.14 598.443 216.299 598.625 216.507C598.81 216.715 598.951 216.965 599.049 217.257C599.146 217.549 599.195 217.875 599.195 218.235C599.195 218.576 599.148 218.889 599.053 219.175C598.963 219.461 598.825 219.711 598.64 219.925C598.455 220.136 598.221 220.3 597.939 220.417C597.659 220.533 597.33 220.592 596.95 220.592C596.665 220.592 596.394 220.553 596.137 220.475C595.884 220.394 595.657 220.272 595.456 220.11C595.258 219.944 595.095 219.74 594.969 219.496C594.845 219.25 594.767 218.961 594.735 218.63H595.592C595.631 218.896 595.709 219.12 595.826 219.302C595.942 219.483 596.095 219.621 596.283 219.716C596.475 219.806 596.697 219.852 596.95 219.852C597.164 219.852 597.354 219.815 597.52 219.74C597.685 219.665 597.825 219.558 597.939 219.419C598.052 219.279 598.138 219.11 598.197 218.912C598.258 218.714 598.289 218.492 598.289 218.245C598.289 218.021 598.258 217.814 598.197 217.622C598.135 217.431 598.042 217.263 597.919 217.121C597.799 216.978 597.651 216.867 597.476 216.789C597.301 216.708 597.1 216.668 596.872 216.668C596.571 216.668 596.342 216.708 596.186 216.789C596.033 216.871 595.876 216.981 595.714 217.121ZM608.343 213.406V220.495H607.398L603.83 215.027V220.495H602.89V213.406H603.83L607.413 218.888V213.406H608.343ZM609.633 217.919V217.807C609.633 217.427 609.688 217.075 609.799 216.751C609.909 216.423 610.068 216.139 610.276 215.899C610.483 215.655 610.735 215.467 611.03 215.334C611.326 215.197 611.657 215.129 612.023 215.129C612.393 215.129 612.726 215.197 613.022 215.334C613.32 215.467 613.573 215.655 613.781 215.899C613.992 216.139 614.153 216.423 614.263 216.751C614.373 217.075 614.429 217.427 614.429 217.807V217.919C614.429 218.299 614.373 218.651 614.263 218.976C614.153 219.3 613.992 219.584 613.781 219.828C613.573 220.068 613.322 220.256 613.026 220.392C612.734 220.525 612.403 220.592 612.033 220.592C611.663 220.592 611.33 220.525 611.035 220.392C610.74 220.256 610.487 220.068 610.276 219.828C610.068 219.584 609.909 219.3 609.799 218.976C609.688 218.651 609.633 218.299 609.633 217.919ZM610.534 217.807V217.919C610.534 218.182 610.565 218.43 610.626 218.664C610.688 218.894 610.78 219.099 610.904 219.277C611.03 219.456 611.188 219.597 611.376 219.701C611.564 219.802 611.783 219.852 612.033 219.852C612.28 219.852 612.496 219.802 612.681 219.701C612.869 219.597 613.025 219.456 613.148 219.277C613.271 219.099 613.364 218.894 613.426 218.664C613.491 218.43 613.523 218.182 613.523 217.919V217.807C613.523 217.547 613.491 217.302 613.426 217.072C613.364 216.838 613.27 216.632 613.143 216.454C613.02 216.272 612.864 216.129 612.676 216.025C612.491 215.921 612.273 215.869 612.023 215.869C611.777 215.869 611.559 215.921 611.371 216.025C611.186 216.129 611.03 216.272 610.904 216.454C610.78 216.632 610.688 216.838 610.626 217.072C610.565 217.302 610.534 217.547 610.534 217.807ZM617.082 219.681L618.523 215.227H619.443L617.549 220.495H616.946L617.082 219.681ZM615.879 215.227L617.364 219.706L617.467 220.495H616.863L614.954 215.227H615.879Z" fill="#7D8FA9"/>
<path d="M730.444 216.385V217.466C730.444 218.047 730.393 218.537 730.289 218.937C730.185 219.336 730.035 219.657 729.841 219.901C729.646 220.144 729.411 220.321 729.135 220.431C728.862 220.538 728.554 220.592 728.21 220.592C727.937 220.592 727.686 220.558 727.455 220.49C727.225 220.421 727.017 220.313 726.832 220.163C726.65 220.011 726.494 219.813 726.365 219.569C726.235 219.326 726.136 219.031 726.068 218.683C725.999 218.336 725.965 217.93 725.965 217.466V216.385C725.965 215.804 726.017 215.318 726.121 214.925C726.228 214.532 726.379 214.217 726.574 213.98C726.769 213.74 727.002 213.568 727.275 213.464C727.551 213.36 727.859 213.308 728.2 213.308C728.476 213.308 728.729 213.343 728.96 213.411C729.193 213.476 729.401 213.581 729.583 213.727C729.764 213.87 729.919 214.061 730.045 214.302C730.175 214.539 730.274 214.829 730.342 215.173C730.41 215.517 730.444 215.921 730.444 216.385ZM729.539 217.612V216.234C729.539 215.916 729.519 215.637 729.48 215.397C729.445 215.154 729.391 214.946 729.32 214.774C729.248 214.602 729.158 214.462 729.047 214.355C728.94 214.248 728.815 214.17 728.672 214.121C728.533 214.07 728.375 214.044 728.2 214.044C727.986 214.044 727.796 214.084 727.63 214.165C727.465 214.243 727.325 214.368 727.212 214.54C727.101 214.712 727.017 214.938 726.959 215.217C726.9 215.496 726.871 215.835 726.871 216.234V217.612C726.871 217.93 726.889 218.211 726.924 218.455C726.963 218.698 727.02 218.909 727.095 219.087C727.17 219.263 727.26 219.407 727.367 219.521C727.475 219.634 727.598 219.719 727.738 219.774C727.88 219.826 728.038 219.852 728.21 219.852C728.43 219.852 728.624 219.81 728.789 219.725C728.955 219.641 729.093 219.509 729.203 219.331C729.317 219.149 729.401 218.917 729.456 218.635C729.511 218.349 729.539 218.008 729.539 217.612ZM735.06 213.396H735.138V214.16H735.06C734.583 214.16 734.184 214.238 733.862 214.394C733.541 214.547 733.286 214.753 733.098 215.012C732.91 215.269 732.773 215.558 732.689 215.879C732.608 216.2 732.567 216.527 732.567 216.858V217.9C732.567 218.214 732.604 218.494 732.679 218.737C732.754 218.977 732.856 219.18 732.986 219.346C733.116 219.511 733.262 219.636 733.424 219.72C733.59 219.805 733.762 219.847 733.94 219.847C734.148 219.847 734.333 219.808 734.495 219.73C734.657 219.649 734.794 219.537 734.904 219.394C735.018 219.248 735.104 219.076 735.162 218.878C735.221 218.68 735.25 218.463 735.25 218.226C735.25 218.015 735.224 217.812 735.172 217.617C735.12 217.419 735.04 217.244 734.933 217.091C734.826 216.936 734.692 216.814 734.529 216.726C734.37 216.635 734.18 216.59 733.96 216.59C733.71 216.59 733.476 216.652 733.259 216.775C733.044 216.895 732.867 217.054 732.728 217.252C732.592 217.447 732.514 217.659 732.494 217.89L732.017 217.885C732.062 217.521 732.147 217.211 732.27 216.955C732.397 216.695 732.553 216.484 732.738 216.322C732.926 216.157 733.135 216.036 733.366 215.962C733.599 215.884 733.846 215.845 734.106 215.845C734.459 215.845 734.765 215.912 735.021 216.045C735.277 216.178 735.488 216.356 735.654 216.58C735.819 216.801 735.941 217.051 736.019 217.33C736.1 217.606 736.141 217.89 736.141 218.182C736.141 218.516 736.094 218.829 736 219.122C735.905 219.414 735.764 219.67 735.576 219.891C735.391 220.112 735.162 220.284 734.889 220.407C734.617 220.53 734.3 220.592 733.94 220.592C733.557 220.592 733.223 220.514 732.937 220.358C732.652 220.199 732.415 219.988 732.226 219.725C732.038 219.462 731.897 219.17 731.803 218.849C731.709 218.528 731.662 218.201 731.662 217.87V217.447C731.662 216.947 731.712 216.457 731.813 215.976C731.913 215.496 732.087 215.061 732.333 214.672C732.583 214.282 732.929 213.972 733.37 213.742C733.812 213.511 734.375 213.396 735.06 213.396ZM745.372 213.406V220.495H744.427L740.858 215.027V220.495H739.919V213.406H740.858L744.442 218.888V213.406H745.372ZM746.662 217.919V217.807C746.662 217.427 746.717 217.075 746.827 216.751C746.938 216.423 747.097 216.139 747.304 215.899C747.512 215.655 747.764 215.467 748.059 215.334C748.354 215.197 748.686 215.129 749.052 215.129C749.422 215.129 749.755 215.197 750.05 215.334C750.349 215.467 750.602 215.655 750.81 215.899C751.021 216.139 751.181 216.423 751.292 216.751C751.402 217.075 751.457 217.427 751.457 217.807V217.919C751.457 218.299 751.402 218.651 751.292 218.976C751.181 219.3 751.021 219.584 750.81 219.828C750.602 220.068 750.351 220.256 750.055 220.392C749.763 220.525 749.432 220.592 749.062 220.592C748.692 220.592 748.359 220.525 748.064 220.392C747.769 220.256 747.515 220.068 747.304 219.828C747.097 219.584 746.938 219.3 746.827 218.976C746.717 218.651 746.662 218.299 746.662 217.919ZM747.562 217.807V217.919C747.562 218.182 747.593 218.43 747.655 218.664C747.717 218.894 747.809 219.099 747.932 219.277C748.059 219.456 748.216 219.597 748.405 219.701C748.593 219.802 748.812 219.852 749.062 219.852C749.309 219.852 749.525 219.802 749.71 219.701C749.898 219.597 750.054 219.456 750.177 219.277C750.3 219.099 750.393 218.894 750.454 218.664C750.519 218.43 750.552 218.182 750.552 217.919V217.807C750.552 217.547 750.519 217.302 750.454 217.072C750.393 216.838 750.299 216.632 750.172 216.454C750.049 216.272 749.893 216.129 749.705 216.025C749.52 215.921 749.302 215.869 749.052 215.869C748.806 215.869 748.588 215.921 748.4 216.025C748.215 216.129 748.059 216.272 747.932 216.454C747.809 216.632 747.717 216.838 747.655 217.072C747.593 217.302 747.562 217.547 747.562 217.807ZM754.111 219.681L755.552 215.227H756.472L754.578 220.495H753.974L754.111 219.681ZM752.908 215.227L754.393 219.706L754.495 220.495H753.892L751.983 215.227H752.908Z" fill="#7D8FA9"/>
<path d="M867.474 216.385V217.466C867.474 218.047 867.422 218.537 867.318 218.937C867.214 219.336 867.065 219.657 866.87 219.901C866.675 220.144 866.44 220.321 866.164 220.431C865.891 220.538 865.583 220.592 865.239 220.592C864.966 220.592 864.715 220.558 864.484 220.49C864.254 220.421 864.046 220.313 863.861 220.163C863.679 220.011 863.524 219.813 863.394 219.569C863.264 219.326 863.165 219.031 863.097 218.683C863.029 218.336 862.995 217.93 862.995 217.466V216.385C862.995 215.804 863.047 215.318 863.15 214.925C863.258 214.532 863.408 214.217 863.603 213.98C863.798 213.74 864.032 213.568 864.304 213.464C864.58 213.36 864.889 213.308 865.229 213.308C865.505 213.308 865.758 213.343 865.989 213.411C866.223 213.476 866.43 213.581 866.612 213.727C866.794 213.87 866.948 214.061 867.075 214.302C867.204 214.539 867.303 214.829 867.372 215.173C867.44 215.517 867.474 215.921 867.474 216.385ZM866.568 217.612V216.234C866.568 215.916 866.549 215.637 866.51 215.397C866.474 215.154 866.421 214.946 866.349 214.774C866.278 214.602 866.187 214.462 866.076 214.355C865.969 214.248 865.844 214.17 865.702 214.121C865.562 214.07 865.405 214.044 865.229 214.044C865.015 214.044 864.825 214.084 864.66 214.165C864.494 214.243 864.355 214.368 864.241 214.54C864.131 214.712 864.046 214.938 863.988 215.217C863.929 215.496 863.9 215.835 863.9 216.234V217.612C863.9 217.93 863.918 218.211 863.954 218.455C863.993 218.698 864.049 218.909 864.124 219.087C864.199 219.263 864.29 219.407 864.397 219.521C864.504 219.634 864.627 219.719 864.767 219.774C864.91 219.826 865.067 219.852 865.239 219.852C865.46 219.852 865.653 219.81 865.818 219.725C865.984 219.641 866.122 219.509 866.232 219.331C866.346 219.149 866.43 218.917 866.485 218.635C866.541 218.349 866.568 218.008 866.568 217.612ZM873.214 213.406V213.912L870.278 220.495H869.329L872.26 214.146H868.423V213.406H873.214ZM882.401 213.406V220.495H881.456L877.888 215.027V220.495H876.948V213.406H877.888L881.471 218.888V213.406H882.401ZM883.691 217.919V217.807C883.691 217.427 883.746 217.075 883.857 216.751C883.967 216.423 884.126 216.139 884.334 215.899C884.541 215.655 884.793 215.467 885.088 215.334C885.384 215.197 885.715 215.129 886.082 215.129C886.452 215.129 886.784 215.197 887.08 215.334C887.378 215.467 887.631 215.655 887.839 215.899C888.05 216.139 888.211 216.423 888.321 216.751C888.431 217.075 888.487 217.427 888.487 217.807V217.919C888.487 218.299 888.431 218.651 888.321 218.976C888.211 219.3 888.05 219.584 887.839 219.828C887.631 220.068 887.38 220.256 887.085 220.392C886.792 220.525 886.461 220.592 886.091 220.592C885.721 220.592 885.389 220.525 885.093 220.392C884.798 220.256 884.545 220.068 884.334 219.828C884.126 219.584 883.967 219.3 883.857 218.976C883.746 218.651 883.691 218.299 883.691 217.919ZM884.592 217.807V217.919C884.592 218.182 884.623 218.43 884.684 218.664C884.746 218.894 884.838 219.099 884.962 219.277C885.088 219.456 885.246 219.597 885.434 219.701C885.622 219.802 885.841 219.852 886.091 219.852C886.338 219.852 886.554 219.802 886.739 219.701C886.927 219.597 887.083 219.456 887.206 219.277C887.33 219.099 887.422 218.894 887.484 218.664C887.549 218.43 887.581 218.182 887.581 217.919V217.807C887.581 217.547 887.549 217.302 887.484 217.072C887.422 216.838 887.328 216.632 887.201 216.454C887.078 216.272 886.922 216.129 886.734 216.025C886.549 215.921 886.331 215.869 886.082 215.869C885.835 215.869 885.617 215.921 885.429 216.025C885.244 216.129 885.088 216.272 884.962 216.454C884.838 216.632 884.746 216.838 884.684 217.072C884.623 217.302 884.592 217.547 884.592 217.807ZM891.14 219.681L892.581 215.227H893.501L891.607 220.495H891.004L891.14 219.681ZM889.938 215.227L891.422 219.706L891.525 220.495H890.921L889.012 215.227H889.938Z" fill="#7D8FA9"/>
<defs>
<linearGradient id="paint0_linear_64_113" x1="466.971" y1="204.847" x2="466.971" y2="65.67" gradientUnits="userSpaceOnUse">
<stop stop-color="#0C5293" stop-opacity="0"/>
<stop offset="1" stop-color="#43A5FF"/>
</linearGradient>
</defs>
</svg>
