<svg width="912" height="217" viewBox="0 0 912 217" fill="none" xmlns="http://www.w3.org/2000/svg">
<path d="M18.1825 6.07106L17.4817 5.89112L17.8274 2.45792H21.3647V3.26768H18.5708L18.3625 5.14292C18.4887 5.07031 18.6482 5.00243 18.8407 4.93929C19.0365 4.87615 19.2606 4.84458 19.5132 4.84458C19.832 4.84458 20.1177 4.89983 20.3703 5.01032C20.6228 5.11766 20.8375 5.27235 21.0143 5.4744C21.1943 5.67644 21.3316 5.91953 21.4263 6.20365C21.521 6.48778 21.5684 6.80506 21.5684 7.15548C21.5684 7.48696 21.5226 7.79161 21.431 8.06942C21.3426 8.34723 21.2085 8.59032 21.0285 8.79868C20.8486 9.00388 20.6213 9.1633 20.3466 9.27696C20.0751 9.39061 19.7547 9.44743 19.3853 9.44743C19.1075 9.44743 18.8439 9.40955 18.5945 9.33378C18.3483 9.25486 18.1273 9.13647 17.9315 8.97862C17.739 8.81762 17.5811 8.61873 17.458 8.38196C17.338 8.14203 17.2623 7.86106 17.2307 7.53905H18.0641C18.102 7.79792 18.1778 8.01575 18.2914 8.19254C18.4051 8.36933 18.5535 8.5035 18.7366 8.59505C18.9228 8.68345 19.1391 8.72764 19.3853 8.72764C19.5937 8.72764 19.7784 8.69134 19.9394 8.61873C20.1004 8.54612 20.2361 8.44194 20.3466 8.30619C20.4571 8.17044 20.5408 8.00628 20.5976 7.8137C20.6576 7.62113 20.6876 7.40488 20.6876 7.16495C20.6876 6.94712 20.6576 6.74507 20.5976 6.55881C20.5376 6.37255 20.4476 6.20997 20.3277 6.07106C20.2109 5.93216 20.0672 5.82482 19.8967 5.74905C19.7263 5.67013 19.5305 5.63067 19.3095 5.63067C19.0159 5.63067 18.7934 5.67013 18.6418 5.74905C18.4935 5.82798 18.3404 5.93531 18.1825 6.07106ZM26.8578 5.35601V6.40728C26.8578 6.97237 26.8073 7.44908 26.7063 7.83738C26.6053 8.22569 26.4601 8.53823 26.2706 8.775C26.0812 9.01177 25.8523 9.18382 25.584 9.29116C25.3188 9.39534 25.0189 9.44743 24.6843 9.44743C24.4191 9.44743 24.1744 9.41428 23.9503 9.34799C23.7261 9.28169 23.5241 9.17593 23.3441 9.03071C23.1674 8.88234 23.0158 8.68976 22.8895 8.45299C22.7633 8.21622 22.667 7.92893 22.6007 7.59114C22.5344 7.25334 22.5012 6.85872 22.5012 6.40728V5.35601C22.5012 4.79091 22.5517 4.31737 22.6528 3.93538C22.7569 3.55339 22.9037 3.24716 23.0932 3.0167C23.2826 2.78309 23.5099 2.61577 23.7751 2.51475C24.0434 2.41372 24.3433 2.36321 24.6748 2.36321C24.9431 2.36321 25.1894 2.39636 25.4135 2.46266C25.6408 2.5258 25.8429 2.6284 26.0197 2.77046C26.1965 2.90937 26.3464 3.09563 26.4695 3.32924C26.5958 3.5597 26.6921 3.84225 26.7584 4.17689C26.8247 4.51152 26.8578 4.90457 26.8578 5.35601ZM25.977 6.54934V5.20921C25.977 4.89983 25.9581 4.62833 25.9202 4.39472C25.8855 4.15794 25.8334 3.9559 25.764 3.78858C25.6945 3.62126 25.6061 3.48551 25.4988 3.38133C25.3946 3.27715 25.273 3.20138 25.1341 3.15403C24.9984 3.10352 24.8453 3.07826 24.6748 3.07826C24.4664 3.07826 24.2818 3.11773 24.1208 3.19665C23.9597 3.27242 23.824 3.39396 23.7135 3.56128C23.6062 3.7286 23.5241 3.94801 23.4673 4.2195C23.4104 4.491 23.382 4.82091 23.382 5.20921V6.54934C23.382 6.85872 23.3994 7.1318 23.4341 7.36857C23.472 7.60534 23.5272 7.81055 23.5999 7.98418C23.6725 8.15466 23.7609 8.29514 23.865 8.40563C23.9692 8.51613 24.0892 8.59821 24.2249 8.65188C24.3638 8.70239 24.517 8.72764 24.6843 8.72764C24.8989 8.72764 25.0868 8.6866 25.2478 8.60452C25.4088 8.52244 25.543 8.39458 25.6503 8.22095C25.7608 8.04416 25.8429 7.81844 25.8965 7.54378C25.9502 7.26597 25.977 6.93449 25.977 6.54934ZM28.9604 2.07909V9.35272H28.0796V2.07909H28.9604ZM32.0905 4.22898L29.8554 6.62037L28.6052 7.91788L28.5342 6.985L29.4292 5.91479L31.0203 4.22898H32.0905ZM31.2902 9.35272L29.4623 6.90923L29.9169 6.12789L32.3225 9.35272H31.2902Z" fill="#2F2F2F"/>
<path d="M21.7341 45.888V46.6078H16.7524V46.0916L19.8399 41.3136H20.555L19.7878 42.6963L17.7469 45.888H21.7341ZM20.7728 41.3136V48.2084H19.8967V41.3136H20.7728ZM26.8578 44.2117V45.2629C26.8578 45.828 26.8073 46.3047 26.7063 46.693C26.6053 47.0813 26.4601 47.3939 26.2706 47.6307C26.0812 47.8674 25.8523 48.0395 25.584 48.1468C25.3188 48.251 25.0189 48.3031 24.6843 48.3031C24.4191 48.3031 24.1744 48.2699 23.9503 48.2036C23.7261 48.1373 23.5241 48.0316 23.3441 47.8864C23.1674 47.738 23.0158 47.5454 22.8895 47.3086C22.7633 47.0719 22.667 46.7846 22.6007 46.4468C22.5344 46.109 22.5012 45.7144 22.5012 45.2629V44.2117C22.5012 43.6466 22.5517 43.173 22.6528 42.791C22.7569 42.409 22.9037 42.1028 23.0932 41.8724C23.2826 41.6387 23.5099 41.4714 23.7751 41.3704C24.0434 41.2694 24.3433 41.2189 24.6748 41.2189C24.9431 41.2189 25.1894 41.252 25.4135 41.3183C25.6408 41.3814 25.8429 41.484 26.0197 41.6261C26.1965 41.765 26.3464 41.9513 26.4695 42.1849C26.5958 42.4154 26.6921 42.6979 26.7584 43.0325C26.8247 43.3672 26.8578 43.7602 26.8578 44.2117ZM25.977 45.405V44.0649C25.977 43.7555 25.9581 43.484 25.9202 43.2504C25.8855 43.0136 25.8334 42.8116 25.764 42.6442C25.6945 42.4769 25.6061 42.3412 25.4988 42.237C25.3946 42.1328 25.273 42.057 25.1341 42.0097C24.9984 41.9592 24.8453 41.9339 24.6748 41.9339C24.4664 41.9339 24.2818 41.9734 24.1208 42.0523C23.9597 42.1281 23.824 42.2496 23.7135 42.4169C23.6062 42.5842 23.5241 42.8037 23.4673 43.0752C23.4104 43.3467 23.382 43.6766 23.382 44.0649V45.405C23.382 45.7144 23.3994 45.9875 23.4341 46.2242C23.472 46.461 23.5272 46.6662 23.5999 46.8398C23.6725 47.0103 23.7609 47.1508 23.865 47.2613C23.9692 47.3718 24.0892 47.4539 24.2249 47.5075C24.3638 47.558 24.517 47.5833 24.6843 47.5833C24.8989 47.5833 25.0868 47.5423 25.2478 47.4602C25.4088 47.3781 25.543 47.2502 25.6503 47.0766C25.7608 46.8998 25.8429 46.6741 25.8965 46.3994C25.9502 46.1216 25.977 45.7901 25.977 45.405ZM28.9604 40.9347V48.2084H28.0796V40.9347H28.9604ZM32.0905 43.0846L29.8554 45.476L28.6052 46.7735L28.5342 45.8407L29.4292 44.7704L31.0203 43.0846H32.0905ZM31.2902 48.2084L29.4623 45.7649L29.9169 44.9835L32.3225 48.2084H31.2902Z" fill="#2F2F2F"/>
<path d="M18.353 83.1857H18.9781C19.2843 83.1857 19.5368 83.1352 19.7357 83.0341C19.9378 82.93 20.0877 82.7895 20.1856 82.6127C20.2866 82.4327 20.3371 82.2307 20.3371 82.0065C20.3371 81.7414 20.2929 81.5188 20.2045 81.3388C20.1162 81.1589 19.9836 81.0232 19.8068 80.9316C19.63 80.84 19.4058 80.7943 19.1343 80.7943C18.8881 80.7943 18.6703 80.8432 18.4808 80.9411C18.2946 81.0358 18.1478 81.1715 18.0404 81.3483C17.9363 81.5251 17.8842 81.7335 17.8842 81.9734H17.0081C17.0081 81.623 17.0965 81.3041 17.2733 81.0168C17.4501 80.7296 17.6979 80.5007 18.0168 80.3302C18.3388 80.1597 18.7113 80.0745 19.1343 80.0745C19.5511 80.0745 19.9157 80.1487 20.2282 80.2971C20.5408 80.4423 20.7838 80.6601 20.9575 80.9505C21.1311 81.2378 21.2179 81.5961 21.2179 82.0255C21.2179 82.1991 21.1769 82.3854 21.0948 82.5843C21.0159 82.78 20.8912 82.9631 20.7207 83.1336C20.5534 83.3041 20.3356 83.4445 20.0672 83.555C19.7989 83.6624 19.4769 83.716 19.1012 83.716H18.353V83.1857ZM18.353 83.9055V83.3798H19.1012C19.54 83.3798 19.9031 83.4319 20.1903 83.5361C20.4776 83.6403 20.7033 83.7792 20.8675 83.9528C21.0348 84.1264 21.1516 84.3174 21.2179 84.5258C21.2874 84.731 21.3221 84.9362 21.3221 85.1414C21.3221 85.4634 21.2669 85.7491 21.1564 85.9985C21.049 86.2479 20.8959 86.4594 20.697 86.6331C20.5013 86.8067 20.2708 86.9377 20.0057 87.0261C19.7405 87.1145 19.4516 87.1587 19.1391 87.1587C18.8392 87.1587 18.5566 87.1161 18.2914 87.0308C18.0294 86.9456 17.7974 86.8225 17.5953 86.6615C17.3933 86.4973 17.2354 86.2969 17.1218 86.0601C17.0081 85.8202 16.9513 85.5471 16.9513 85.2409H17.8274C17.8274 85.4808 17.8794 85.6907 17.9836 85.8707C18.091 86.0506 18.2425 86.1911 18.4382 86.2921C18.6371 86.39 18.8707 86.4389 19.1391 86.4389C19.4074 86.4389 19.6379 86.3931 19.8304 86.3016C20.0262 86.2069 20.1761 86.0648 20.2803 85.8754C20.3876 85.686 20.4413 85.4476 20.4413 85.1603C20.4413 84.8731 20.3813 84.6379 20.2614 84.4548C20.1414 84.2685 19.9709 84.1312 19.7499 84.0428C19.5321 83.9512 19.2748 83.9055 18.9781 83.9055H18.353ZM26.8578 83.0673V84.1186C26.8578 84.6836 26.8073 85.1603 26.7063 85.5487C26.6053 85.937 26.4601 86.2495 26.2706 86.4863C26.0812 86.723 25.8523 86.8951 25.584 87.0024C25.3188 87.1066 25.0189 87.1587 24.6843 87.1587C24.4191 87.1587 24.1744 87.1256 23.9503 87.0593C23.7261 86.993 23.5241 86.8872 23.3441 86.742C23.1674 86.5936 23.0158 86.401 22.8895 86.1643C22.7633 85.9275 22.667 85.6402 22.6007 85.3024C22.5344 84.9646 22.5012 84.57 22.5012 84.1186V83.0673C22.5012 82.5022 22.5517 82.0286 22.6528 81.6467C22.7569 81.2647 22.9037 80.9584 23.0932 80.728C23.2826 80.4944 23.5099 80.327 23.7751 80.226C24.0434 80.125 24.3433 80.0745 24.6748 80.0745C24.9431 80.0745 25.1894 80.1076 25.4135 80.1739C25.6408 80.2371 25.8429 80.3397 26.0197 80.4817C26.1965 80.6206 26.3464 80.8069 26.4695 81.0405C26.5958 81.271 26.6921 81.5535 26.7584 81.8882C26.8247 82.2228 26.8578 82.6158 26.8578 83.0673ZM25.977 84.2606V82.9205C25.977 82.6111 25.9581 82.3396 25.9202 82.106C25.8855 81.8692 25.8334 81.6672 25.764 81.4999C25.6945 81.3325 25.6061 81.1968 25.4988 81.0926C25.3946 80.9884 25.273 80.9127 25.1341 80.8653C24.9984 80.8148 24.8453 80.7895 24.6748 80.7895C24.4664 80.7895 24.2818 80.829 24.1208 80.9079C23.9597 80.9837 23.824 81.1052 23.7135 81.2726C23.6062 81.4399 23.5241 81.6593 23.4673 81.9308C23.4104 82.2023 23.382 82.5322 23.382 82.9205V84.2606C23.382 84.57 23.3994 84.8431 23.4341 85.0798C23.472 85.3166 23.5272 85.5218 23.5999 85.6955C23.6725 85.8659 23.7609 86.0064 23.865 86.1169C23.9692 86.2274 24.0892 86.3095 24.2249 86.3632C24.3638 86.4137 24.517 86.4389 24.6843 86.4389C24.8989 86.4389 25.0868 86.3979 25.2478 86.3158C25.4088 86.2337 25.543 86.1059 25.6503 85.9322C25.7608 85.7554 25.8429 85.5297 25.8965 85.2551C25.9502 84.9772 25.977 84.6458 25.977 84.2606ZM28.9604 79.7904V87.064H28.0796V79.7904H28.9604ZM32.0905 81.9402L29.8554 84.3316L28.6052 85.6292L28.5342 84.6963L29.4292 83.6261L31.0203 81.9402H32.0905ZM31.2902 87.064L29.4623 84.6205L29.9169 83.8392L32.3225 87.064H31.2902Z" fill="#2F2F2F"/>
<path d="M21.592 125.2V125.92H17.0792V125.29L19.338 122.775C19.6158 122.466 19.8304 122.204 19.982 121.989C20.1367 121.771 20.244 121.577 20.304 121.407C20.3671 121.233 20.3987 121.056 20.3987 120.876C20.3987 120.649 20.3513 120.444 20.2566 120.261C20.1651 120.075 20.0293 119.926 19.8494 119.816C19.6694 119.705 19.4516 119.65 19.1959 119.65C18.8897 119.65 18.634 119.71 18.4288 119.83C18.2267 119.947 18.0752 120.111 17.9742 120.322C17.8731 120.534 17.8226 120.777 17.8226 121.052H16.9466C16.9466 120.663 17.0318 120.308 17.2023 119.986C17.3728 119.664 17.6253 119.408 17.9599 119.219C18.2946 119.026 18.7066 118.93 19.1959 118.93C19.6316 118.93 20.0041 119.007 20.3135 119.162C20.6228 119.314 20.8596 119.528 21.0238 119.806C21.1911 120.081 21.2748 120.403 21.2748 120.772C21.2748 120.974 21.24 121.179 21.1706 121.388C21.1043 121.593 21.0111 121.798 20.8912 122.003C20.7744 122.209 20.637 122.411 20.4792 122.61C20.3245 122.808 20.1588 123.004 19.982 123.197L18.1352 125.2H21.592ZM26.8578 121.923V122.974C26.8578 123.539 26.8073 124.016 26.7063 124.404C26.6053 124.793 26.4601 125.105 26.2706 125.342C26.0812 125.579 25.8523 125.751 25.584 125.858C25.3188 125.962 25.0189 126.014 24.6843 126.014C24.4191 126.014 24.1744 125.981 23.9503 125.915C23.7261 125.849 23.5241 125.743 23.3441 125.598C23.1674 125.449 23.0158 125.257 22.8895 125.02C22.7633 124.783 22.667 124.496 22.6007 124.158C22.5344 123.82 22.5012 123.426 22.5012 122.974V121.923C22.5012 121.358 22.5517 120.884 22.6528 120.502C22.7569 120.12 22.9037 119.814 23.0932 119.584C23.2826 119.35 23.5099 119.183 23.7751 119.082C24.0434 118.981 24.3433 118.93 24.6748 118.93C24.9431 118.93 25.1894 118.963 25.4135 119.03C25.6408 119.093 25.8429 119.195 26.0197 119.337C26.1965 119.476 26.3464 119.663 26.4695 119.896C26.5958 120.127 26.6921 120.409 26.7584 120.744C26.8247 121.078 26.8578 121.471 26.8578 121.923ZM25.977 123.116V121.776C25.977 121.467 25.9581 121.195 25.9202 120.962C25.8855 120.725 25.8334 120.523 25.764 120.355C25.6945 120.188 25.6061 120.052 25.4988 119.948C25.3946 119.844 25.273 119.768 25.1341 119.721C24.9984 119.67 24.8453 119.645 24.6748 119.645C24.4664 119.645 24.2818 119.685 24.1208 119.764C23.9597 119.839 23.824 119.961 23.7135 120.128C23.6062 120.295 23.5241 120.515 23.4673 120.786C23.4104 121.058 23.382 121.388 23.382 121.776V123.116C23.382 123.426 23.3994 123.699 23.4341 123.935C23.472 124.172 23.5272 124.377 23.5999 124.551C23.6725 124.722 23.7609 124.862 23.865 124.973C23.9692 125.083 24.0892 125.165 24.2249 125.219C24.3638 125.269 24.517 125.295 24.6843 125.295C24.8989 125.295 25.0868 125.253 25.2478 125.171C25.4088 125.089 25.543 124.961 25.6503 124.788C25.7608 124.611 25.8429 124.385 25.8965 124.111C25.9502 123.833 25.977 123.501 25.977 123.116ZM28.9604 118.646V125.92H28.0796V118.646H28.9604ZM32.0905 120.796L29.8554 123.187L28.6052 124.485L28.5342 123.552L29.4292 122.482L31.0203 120.796H32.0905ZM31.2902 125.92L29.4623 123.476L29.9169 122.695L32.3225 125.92H31.2902Z" fill="#2F2F2F"/>
<path d="M19.9536 157.843V164.775H19.0775V158.936L17.3112 159.58V158.79L19.8162 157.843H19.9536ZM26.8578 160.779V161.83C26.8578 162.395 26.8073 162.872 26.7063 163.26C26.6053 163.648 26.4601 163.961 26.2706 164.198C26.0812 164.434 25.8523 164.606 25.584 164.714C25.3188 164.818 25.0189 164.87 24.6843 164.87C24.4191 164.87 24.1744 164.837 23.9503 164.771C23.7261 164.704 23.5241 164.598 23.3441 164.453C23.1674 164.305 23.0158 164.112 22.8895 163.876C22.7633 163.639 22.667 163.351 22.6007 163.014C22.5344 162.676 22.5012 162.281 22.5012 161.83V160.779C22.5012 160.213 22.5517 159.74 22.6528 159.358C22.7569 158.976 22.9037 158.67 23.0932 158.439C23.2826 158.206 23.5099 158.038 23.7751 157.937C24.0434 157.836 24.3433 157.786 24.6748 157.786C24.9431 157.786 25.1894 157.819 25.4135 157.885C25.6408 157.948 25.8429 158.051 26.0197 158.193C26.1965 158.332 26.3464 158.518 26.4695 158.752C26.5958 158.982 26.6921 159.265 26.7584 159.599C26.8247 159.934 26.8578 160.327 26.8578 160.779ZM25.977 161.972V160.632C25.977 160.322 25.9581 160.051 25.9202 159.817C25.8855 159.58 25.8334 159.378 25.764 159.211C25.6945 159.044 25.6061 158.908 25.4988 158.804C25.3946 158.7 25.273 158.624 25.1341 158.577C24.9984 158.526 24.8453 158.501 24.6748 158.501C24.4664 158.501 24.2818 158.54 24.1208 158.619C23.9597 158.695 23.824 158.817 23.7135 158.984C23.6062 159.151 23.5241 159.371 23.4673 159.642C23.4104 159.914 23.382 160.243 23.382 160.632V161.972C23.382 162.281 23.3994 162.554 23.4341 162.791C23.472 163.028 23.5272 163.233 23.5999 163.407C23.6725 163.577 23.7609 163.718 23.865 163.828C23.9692 163.939 24.0892 164.021 24.2249 164.074C24.3638 164.125 24.517 164.15 24.6843 164.15C24.8989 164.15 25.0868 164.109 25.2478 164.027C25.4088 163.945 25.543 163.817 25.6503 163.643C25.7608 163.467 25.8429 163.241 25.8965 162.966C25.9502 162.689 25.977 162.357 25.977 161.972ZM28.9604 157.502V164.775H28.0796V157.502H28.9604ZM32.0905 159.652L29.8554 162.043L28.6052 163.34L28.5342 162.408L29.4292 161.337L31.0203 159.652H32.0905ZM31.2902 164.775L29.4623 162.332L29.9169 161.55L32.3225 164.775H31.2902Z" fill="#2F2F2F"/>
<path d="M26.8578 199.634V200.685C26.8578 201.251 26.8073 201.727 26.7063 202.116C26.6053 202.504 26.4601 202.816 26.2706 203.053C26.0812 203.29 25.8523 203.462 25.584 203.569C25.3188 203.674 25.0189 203.726 24.6843 203.726C24.4191 203.726 24.1744 203.692 23.9503 203.626C23.7261 203.56 23.5241 203.454 23.3441 203.309C23.1674 203.161 23.0158 202.968 22.8895 202.731C22.7633 202.494 22.667 202.207 22.6007 201.869C22.5344 201.532 22.5012 201.137 22.5012 200.685V199.634C22.5012 199.069 22.5517 198.596 22.6528 198.214C22.7569 197.832 22.9037 197.525 23.0932 197.295C23.2826 197.061 23.5099 196.894 23.7751 196.793C24.0434 196.692 24.3433 196.641 24.6748 196.641C24.9431 196.641 25.1894 196.675 25.4135 196.741C25.6408 196.804 25.8429 196.907 26.0197 197.049C26.1965 197.188 26.3464 197.374 26.4695 197.607C26.5958 197.838 26.6921 198.12 26.7584 198.455C26.8247 198.79 26.8578 199.183 26.8578 199.634ZM25.977 200.828V199.487C25.977 199.178 25.9581 198.907 25.9202 198.673C25.8855 198.436 25.8334 198.234 25.764 198.067C25.6945 197.899 25.6061 197.764 25.4988 197.66C25.3946 197.555 25.273 197.48 25.1341 197.432C24.9984 197.382 24.8453 197.356 24.6748 197.356C24.4664 197.356 24.2818 197.396 24.1208 197.475C23.9597 197.551 23.824 197.672 23.7135 197.839C23.6062 198.007 23.5241 198.226 23.4673 198.498C23.4104 198.769 23.382 199.099 23.382 199.487V200.828C23.382 201.137 23.3994 201.41 23.4341 201.647C23.472 201.884 23.5272 202.089 23.5999 202.262C23.6725 202.433 23.7609 202.573 23.865 202.684C23.9692 202.794 24.0892 202.876 24.2249 202.93C24.3638 202.981 24.517 203.006 24.6843 203.006C24.8989 203.006 25.0868 202.965 25.2478 202.883C25.4088 202.801 25.543 202.673 25.6503 202.499C25.7608 202.322 25.8429 202.097 25.8965 201.822C25.9502 201.544 25.977 201.213 25.977 200.828ZM28.9604 196.357V203.631H28.0796V196.357H28.9604ZM32.0905 198.507L29.8554 200.899L28.6052 202.196L28.5342 201.263L29.4292 200.193L31.0203 198.507H32.0905ZM31.2902 203.631L29.4623 201.187L29.9169 200.406L32.3225 203.631H31.2902Z" fill="#2F2F2F"/>
<mask id="path-7-inside-1_311_173" fill="white">
<path d="M38.7927 6.01001H892.604V44.8027H38.7927V6.01001Z"/>
</mask>
<path d="M38.7927 6.01001H892.604V44.8027H38.7927V6.01001Z" fill="white"/>
<path d="M38.7927 6.81819H892.604V5.20183H38.7927V6.81819Z" fill="#C7C7C7" mask="url(#path-7-inside-1_311_173)"/>
<mask id="path-9-inside-2_311_173" fill="white">
<path d="M38.7927 44.8027H892.604V83.5955H38.7927V44.8027Z"/>
</mask>
<path d="M38.7927 44.8027H892.604V83.5955H38.7927V44.8027Z" fill="white"/>
<path d="M38.7927 45.6109H892.604V43.9946H38.7927V45.6109Z" fill="#C7C7C7" mask="url(#path-9-inside-2_311_173)"/>
<mask id="path-11-inside-3_311_173" fill="white">
<path d="M38.7927 83.5955H892.604V122.388H38.7927V83.5955Z"/>
</mask>
<path d="M38.7927 83.5955H892.604V122.388H38.7927V83.5955Z" fill="white"/>
<path d="M38.7927 84.4036H892.604V82.7873H38.7927V84.4036Z" fill="#C7C7C7" mask="url(#path-11-inside-3_311_173)"/>
<mask id="path-13-inside-4_311_173" fill="white">
<path d="M38.7927 122.388H892.604V161.181H38.7927V122.388Z"/>
</mask>
<path d="M38.7927 122.388H892.604V161.181H38.7927V122.388Z" fill="white"/>
<path d="M38.7927 123.196H892.604V121.58H38.7927V123.196Z" fill="#C7C7C7" mask="url(#path-13-inside-4_311_173)"/>
<mask id="path-15-inside-5_311_173" fill="white">
<path d="M38.7927 161.181H892.604V199.974H38.7927V161.181Z"/>
</mask>
<path d="M38.7927 161.181H892.604V199.974H38.7927V161.181Z" fill="white"/>
<path d="M38.7927 161.989H892.604V160.373H38.7927V161.989ZM892.604 199.165H38.7927V200.782H892.604V199.165Z" fill="#C7C7C7" mask="url(#path-15-inside-5_311_173)"/>
<path d="M38.7927 138.821C38.7927 138.821 124.174 105.632 181.095 90.5458C238.015 75.4598 266.476 63.3909 323.396 63.3909C380.317 63.3909 408.777 102.615 465.698 102.615C522.619 102.615 551.079 27.1844 608 27.1844C664.921 27.1844 693.381 54.3393 750.302 54.3393C807.223 54.3393 892.604 18.1327 892.604 18.1327V199.165C892.604 199.165 807.223 199.165 750.302 199.165C693.381 199.165 664.921 199.165 608 199.165C551.079 199.165 522.619 199.165 465.698 199.165C408.777 199.165 380.317 199.165 323.396 199.165C266.476 199.165 238.015 199.165 181.095 199.165C124.174 199.165 38.7927 199.165 38.7927 199.165V138.821Z" fill="url(#paint0_linear_311_173)"/>
<path d="M38.7927 138.821C38.7927 138.821 124.174 105.632 181.095 90.5458C238.015 75.4598 266.476 63.3909 323.396 63.3909C380.317 63.3909 408.777 102.615 465.698 102.615C522.619 102.615 551.079 27.1844 608 27.1844C664.921 27.1844 693.381 54.3393 750.302 54.3393C807.223 54.3393 892.604 18.1327 892.604 18.1327V199.165C892.604 199.165 807.223 199.165 750.302 199.165C693.381 199.165 664.921 199.165 608 199.165C551.079 199.165 522.619 199.165 465.698 199.165C408.777 199.165 380.317 199.165 323.396 199.165C266.476 199.165 238.015 199.165 181.095 199.165C124.174 199.165 38.7927 199.165 38.7927 199.165V138.821Z" fill="url(#paint1_linear_311_173)"/>
<path d="M38.7927 139.32C38.7927 139.32 124.174 105.993 181.095 90.845C238.015 75.6966 266.476 63.5779 323.396 63.5779C380.317 63.5779 408.777 102.964 465.698 102.964C522.619 102.964 551.079 27.2218 608 27.2218C664.921 27.2218 693.381 54.4889 750.302 54.4889C807.223 54.4889 892.604 18.1327 892.604 18.1327" stroke="#0878FB" stroke-width="2.42455"/>
<path d="M43.9979 210.634V211.685C43.9979 212.251 43.9474 212.727 43.8463 213.116C43.7453 213.504 43.6001 213.816 43.4107 214.053C43.2213 214.29 42.9924 214.462 42.724 214.569C42.4589 214.674 42.1589 214.726 41.8243 214.726C41.5591 214.726 41.3145 214.692 41.0903 214.626C40.8662 214.56 40.6641 214.454 40.4842 214.309C40.3074 214.161 40.1559 213.968 40.0296 213.731C39.9033 213.494 39.807 213.207 39.7407 212.869C39.6744 212.532 39.6413 212.137 39.6413 211.685V210.634C39.6413 210.069 39.6918 209.596 39.7928 209.214C39.897 208.832 40.0438 208.525 40.2332 208.295C40.4226 208.061 40.6499 207.894 40.9151 207.793C41.1834 207.692 41.4834 207.641 41.8148 207.641C42.0832 207.641 42.3294 207.675 42.5536 207.741C42.7809 207.804 42.9829 207.907 43.1597 208.049C43.3365 208.188 43.4864 208.374 43.6096 208.607C43.7358 208.838 43.8321 209.12 43.8984 209.455C43.9647 209.79 43.9979 210.183 43.9979 210.634ZM43.1171 211.828V210.487C43.1171 210.178 43.0981 209.907 43.0603 209.673C43.0255 209.436 42.9734 209.234 42.904 209.067C42.8345 208.899 42.7461 208.764 42.6388 208.66C42.5346 208.555 42.4131 208.48 42.2742 208.432C42.1384 208.382 41.9853 208.356 41.8148 208.356C41.6065 208.356 41.4218 208.396 41.2608 208.475C41.0998 208.551 40.964 208.672 40.8535 208.839C40.7462 209.007 40.6641 209.226 40.6073 209.498C40.5505 209.769 40.5221 210.099 40.5221 210.487V211.828C40.5221 212.137 40.5394 212.41 40.5742 212.647C40.612 212.884 40.6673 213.089 40.7399 213.262C40.8125 213.433 40.9009 213.573 41.0051 213.684C41.1093 213.794 41.2292 213.876 41.365 213.93C41.5039 213.981 41.657 214.006 41.8243 214.006C42.039 214.006 42.2268 213.965 42.3878 213.883C42.5488 213.801 42.683 213.673 42.7903 213.499C42.9008 213.322 42.9829 213.097 43.0366 212.822C43.0903 212.544 43.1171 212.213 43.1171 211.828ZM48.0041 207.698V214.631H47.128V208.792L45.3617 209.436V208.645L47.8667 207.698H48.0041ZM58.5167 207.736V214.631H57.5981L54.127 209.313V214.631H53.213V207.736H54.127L57.6123 213.068V207.736H58.5167ZM59.7716 212.126V212.017C59.7716 211.648 59.8253 211.305 59.9326 210.989C60.04 210.671 60.1947 210.394 60.3967 210.161C60.5988 209.924 60.8434 209.741 61.1307 209.611C61.418 209.479 61.74 209.412 62.0967 209.412C62.4566 209.412 62.7802 209.479 63.0675 209.611C63.3579 209.741 63.6042 209.924 63.8062 210.161C64.0114 210.394 64.1677 210.671 64.275 210.989C64.3824 211.305 64.436 211.648 64.436 212.017V212.126C64.436 212.495 64.3824 212.838 64.275 213.153C64.1677 213.469 64.0114 213.745 63.8062 213.982C63.6042 214.216 63.3595 214.399 63.0722 214.531C62.7881 214.661 62.4661 214.726 62.1062 214.726C61.7463 214.726 61.4227 214.661 61.1354 214.531C60.8482 214.399 60.6019 214.216 60.3967 213.982C60.1947 213.745 60.04 213.469 59.9326 213.153C59.8253 212.838 59.7716 212.495 59.7716 212.126ZM60.6477 212.017V212.126C60.6477 212.382 60.6777 212.623 60.7377 212.85C60.7976 213.075 60.8876 213.273 61.0076 213.447C61.1307 213.621 61.2838 213.758 61.4669 213.859C61.65 213.957 61.8631 214.006 62.1062 214.006C62.3461 214.006 62.5561 213.957 62.736 213.859C62.9191 213.758 63.0707 213.621 63.1906 213.447C63.3106 213.273 63.4006 213.075 63.4605 212.85C63.5237 212.623 63.5552 212.382 63.5552 212.126V212.017C63.5552 211.764 63.5237 211.526 63.4605 211.302C63.4006 211.075 63.309 210.874 63.1859 210.701C63.0659 210.524 62.9144 210.385 62.7313 210.284C62.5513 210.183 62.3398 210.132 62.0967 210.132C61.8568 210.132 61.6453 210.183 61.4622 210.284C61.2822 210.385 61.1307 210.524 61.0076 210.701C60.8876 210.874 60.7976 211.075 60.7377 211.302C60.6777 211.526 60.6477 211.764 60.6477 212.017ZM67.0169 213.84L68.4185 209.507H69.3135L67.4715 214.631H66.8843L67.0169 213.84ZM65.8472 209.507L67.2915 213.864L67.391 214.631H66.8038L64.9475 209.507H65.8472Z" fill="#7D8FA9"/>
<path d="M181.133 210.634V211.685C181.133 212.251 181.082 212.727 180.981 213.116C180.88 213.504 180.735 213.816 180.546 214.053C180.356 214.29 180.128 214.462 179.859 214.569C179.594 214.674 179.294 214.726 178.959 214.726C178.694 214.726 178.45 214.692 178.225 214.626C178.001 214.56 177.799 214.454 177.619 214.309C177.443 214.161 177.291 213.968 177.165 213.731C177.038 213.494 176.942 213.207 176.876 212.869C176.81 212.532 176.776 212.137 176.776 211.685V210.634C176.776 210.069 176.827 209.596 176.928 209.214C177.032 208.832 177.179 208.525 177.368 208.295C177.558 208.061 177.785 207.894 178.05 207.793C178.319 207.692 178.618 207.641 178.95 207.641C179.218 207.641 179.465 207.675 179.689 207.741C179.916 207.804 180.118 207.907 180.295 208.049C180.472 208.188 180.622 208.374 180.745 208.607C180.871 208.838 180.967 209.12 181.034 209.455C181.1 209.79 181.133 210.183 181.133 210.634ZM180.252 211.828V210.487C180.252 210.178 180.233 209.907 180.195 209.673C180.161 209.436 180.109 209.234 180.039 209.067C179.97 208.899 179.881 208.764 179.774 208.66C179.67 208.555 179.548 208.48 179.409 208.432C179.274 208.382 179.12 208.356 178.95 208.356C178.742 208.356 178.557 208.396 178.396 208.475C178.235 208.551 178.099 208.672 177.989 208.839C177.881 209.007 177.799 209.226 177.742 209.498C177.686 209.769 177.657 210.099 177.657 210.487V211.828C177.657 212.137 177.675 212.41 177.709 212.647C177.747 212.884 177.802 213.089 177.875 213.262C177.948 213.433 178.036 213.573 178.14 213.684C178.244 213.794 178.364 213.876 178.5 213.93C178.639 213.981 178.792 214.006 178.959 214.006C179.174 214.006 179.362 213.965 179.523 213.883C179.684 213.801 179.818 213.673 179.925 213.499C180.036 213.322 180.118 213.097 180.172 212.822C180.225 212.544 180.252 212.213 180.252 211.828ZM186.778 213.911V214.631H182.265V214.001L184.524 211.487C184.801 211.177 185.016 210.915 185.168 210.701C185.322 210.483 185.43 210.289 185.49 210.118C185.553 209.944 185.584 209.768 185.584 209.588C185.584 209.36 185.537 209.155 185.442 208.972C185.351 208.786 185.215 208.637 185.035 208.527C184.855 208.416 184.637 208.361 184.382 208.361C184.075 208.361 183.82 208.421 183.614 208.541C183.412 208.658 183.261 208.822 183.16 209.034C183.059 209.245 183.008 209.488 183.008 209.763H182.132C182.132 209.375 182.217 209.019 182.388 208.697C182.558 208.375 182.811 208.12 183.146 207.93C183.48 207.738 183.892 207.641 184.382 207.641C184.817 207.641 185.19 207.719 185.499 207.873C185.808 208.025 186.045 208.24 186.209 208.517C186.377 208.792 186.46 209.114 186.46 209.483C186.46 209.686 186.426 209.891 186.356 210.099C186.29 210.304 186.197 210.51 186.077 210.715C185.96 210.92 185.823 211.122 185.665 211.321C185.51 211.52 185.344 211.715 185.168 211.908L183.321 213.911H186.778ZM195.652 207.736V214.631H194.733L191.262 209.313V214.631H190.348V207.736H191.262L194.747 213.068V207.736H195.652ZM196.907 212.126V212.017C196.907 211.648 196.96 211.305 197.068 210.989C197.175 210.671 197.33 210.394 197.532 210.161C197.734 209.924 197.979 209.741 198.266 209.611C198.553 209.479 198.875 209.412 199.232 209.412C199.592 209.412 199.915 209.479 200.203 209.611C200.493 209.741 200.739 209.924 200.941 210.161C201.147 210.394 201.303 210.671 201.41 210.989C201.518 211.305 201.571 211.648 201.571 212.017V212.126C201.571 212.495 201.518 212.838 201.41 213.153C201.303 213.469 201.147 213.745 200.941 213.982C200.739 214.216 200.495 214.399 200.207 214.531C199.923 214.661 199.601 214.726 199.241 214.726C198.881 214.726 198.558 214.661 198.271 214.531C197.983 214.399 197.737 214.216 197.532 213.982C197.33 213.745 197.175 213.469 197.068 213.153C196.96 212.838 196.907 212.495 196.907 212.126ZM197.783 212.017V212.126C197.783 212.382 197.813 212.623 197.873 212.85C197.933 213.075 198.023 213.273 198.143 213.447C198.266 213.621 198.419 213.758 198.602 213.859C198.785 213.957 198.998 214.006 199.241 214.006C199.481 214.006 199.691 213.957 199.871 213.859C200.054 213.758 200.206 213.621 200.326 213.447C200.446 213.273 200.536 213.075 200.596 212.85C200.659 212.623 200.69 212.382 200.69 212.126V212.017C200.69 211.764 200.659 211.526 200.596 211.302C200.536 211.075 200.444 210.874 200.321 210.701C200.201 210.524 200.05 210.385 199.866 210.284C199.686 210.183 199.475 210.132 199.232 210.132C198.992 210.132 198.78 210.183 198.597 210.284C198.417 210.385 198.266 210.524 198.143 210.701C198.023 210.874 197.933 211.075 197.873 211.302C197.813 211.526 197.783 211.764 197.783 212.017ZM204.152 213.84L205.554 209.507H206.449L204.607 214.631H204.019L204.152 213.84ZM202.982 209.507L204.427 213.864L204.526 214.631H203.939L202.083 209.507H202.982Z" fill="#7D8FA9"/>
<path d="M318.268 210.634V211.685C318.268 212.251 318.218 212.727 318.117 213.116C318.016 213.504 317.87 213.816 317.681 214.053C317.492 214.29 317.263 214.462 316.994 214.569C316.729 214.674 316.429 214.726 316.095 214.726C315.829 214.726 315.585 214.692 315.361 214.626C315.136 214.56 314.934 214.454 314.754 214.309C314.578 214.161 314.426 213.968 314.3 213.731C314.174 213.494 314.077 213.207 314.011 212.869C313.945 212.532 313.912 212.137 313.912 211.685V210.634C313.912 210.069 313.962 209.596 314.063 209.214C314.167 208.832 314.314 208.525 314.503 208.295C314.693 208.061 314.92 207.894 315.185 207.793C315.454 207.692 315.754 207.641 316.085 207.641C316.353 207.641 316.6 207.675 316.824 207.741C317.051 207.804 317.253 207.907 317.43 208.049C317.607 208.188 317.757 208.374 317.88 208.607C318.006 208.838 318.102 209.12 318.169 209.455C318.235 209.79 318.268 210.183 318.268 210.634ZM317.387 211.828V210.487C317.387 210.178 317.368 209.907 317.331 209.673C317.296 209.436 317.244 209.234 317.174 209.067C317.105 208.899 317.016 208.764 316.909 208.66C316.805 208.555 316.683 208.48 316.544 208.432C316.409 208.382 316.256 208.356 316.085 208.356C315.877 208.356 315.692 208.396 315.531 208.475C315.37 208.551 315.234 208.672 315.124 208.839C315.016 209.007 314.934 209.226 314.878 209.498C314.821 209.769 314.792 210.099 314.792 210.487V211.828C314.792 212.137 314.81 212.41 314.844 212.647C314.882 212.884 314.938 213.089 315.01 213.262C315.083 213.433 315.171 213.573 315.275 213.684C315.38 213.794 315.499 213.876 315.635 213.93C315.774 213.981 315.927 214.006 316.095 214.006C316.309 214.006 316.497 213.965 316.658 213.883C316.819 213.801 316.953 213.673 317.061 213.499C317.171 213.322 317.253 213.097 317.307 212.822C317.361 212.544 317.387 212.213 317.387 211.828ZM320.674 210.753H321.299C321.605 210.753 321.858 210.702 322.056 210.601C322.259 210.497 322.408 210.356 322.506 210.18C322.607 210 322.658 209.798 322.658 209.573C322.658 209.308 322.614 209.086 322.525 208.906C322.437 208.726 322.304 208.59 322.128 208.499C321.951 208.407 321.727 208.361 321.455 208.361C321.209 208.361 320.991 208.41 320.802 208.508C320.615 208.603 320.469 208.738 320.361 208.915C320.257 209.092 320.205 209.3 320.205 209.54H319.329C319.329 209.19 319.417 208.871 319.594 208.584C319.771 208.296 320.019 208.068 320.338 207.897C320.66 207.727 321.032 207.641 321.455 207.641C321.872 207.641 322.236 207.716 322.549 207.864C322.862 208.009 323.105 208.227 323.278 208.517C323.452 208.805 323.539 209.163 323.539 209.592C323.539 209.766 323.498 209.952 323.416 210.151C323.337 210.347 323.212 210.53 323.041 210.701C322.874 210.871 322.656 211.011 322.388 211.122C322.12 211.229 321.798 211.283 321.422 211.283H320.674V210.753ZM320.674 211.472V210.947H321.422C321.861 210.947 322.224 210.999 322.511 211.103C322.798 211.207 323.024 211.346 323.188 211.52C323.356 211.693 323.472 211.884 323.539 212.093C323.608 212.298 323.643 212.503 323.643 212.708C323.643 213.03 323.588 213.316 323.477 213.565C323.37 213.815 323.217 214.026 323.018 214.2C322.822 214.374 322.592 214.505 322.326 214.593C322.061 214.681 321.772 214.726 321.46 214.726C321.16 214.726 320.877 214.683 320.612 214.598C320.35 214.513 320.118 214.389 319.916 214.228C319.714 214.064 319.556 213.864 319.443 213.627C319.329 213.387 319.272 213.114 319.272 212.808H320.148C320.148 213.048 320.2 213.258 320.304 213.438C320.412 213.618 320.563 213.758 320.759 213.859C320.958 213.957 321.191 214.006 321.46 214.006C321.728 214.006 321.959 213.96 322.151 213.869C322.347 213.774 322.497 213.632 322.601 213.442C322.708 213.253 322.762 213.015 322.762 212.727C322.762 212.44 322.702 212.205 322.582 212.022C322.462 211.835 322.292 211.698 322.071 211.61C321.853 211.518 321.596 211.472 321.299 211.472H320.674ZM332.787 207.736V214.631H331.868L328.397 209.313V214.631H327.483V207.736H328.397L331.883 213.068V207.736H332.787ZM334.042 212.126V212.017C334.042 211.648 334.096 211.305 334.203 210.989C334.31 210.671 334.465 210.394 334.667 210.161C334.869 209.924 335.114 209.741 335.401 209.611C335.688 209.479 336.01 209.412 336.367 209.412C336.727 209.412 337.05 209.479 337.338 209.611C337.628 209.741 337.874 209.924 338.076 210.161C338.282 210.394 338.438 210.671 338.545 210.989C338.653 211.305 338.706 211.648 338.706 212.017V212.126C338.706 212.495 338.653 212.838 338.545 213.153C338.438 213.469 338.282 213.745 338.076 213.982C337.874 214.216 337.63 214.399 337.342 214.531C337.058 214.661 336.736 214.726 336.376 214.726C336.017 214.726 335.693 214.661 335.406 214.531C335.118 214.399 334.872 214.216 334.667 213.982C334.465 213.745 334.31 213.469 334.203 213.153C334.096 212.838 334.042 212.495 334.042 212.126ZM334.918 212.017V212.126C334.918 212.382 334.948 212.623 335.008 212.85C335.068 213.075 335.158 213.273 335.278 213.447C335.401 213.621 335.554 213.758 335.737 213.859C335.92 213.957 336.133 214.006 336.376 214.006C336.616 214.006 336.826 213.957 337.006 213.859C337.189 213.758 337.341 213.621 337.461 213.447C337.581 213.273 337.671 213.075 337.731 212.85C337.794 212.623 337.826 212.382 337.826 212.126V212.017C337.826 211.764 337.794 211.526 337.731 211.302C337.671 211.075 337.579 210.874 337.456 210.701C337.336 210.524 337.185 210.385 337.002 210.284C336.822 210.183 336.61 210.132 336.367 210.132C336.127 210.132 335.916 210.183 335.732 210.284C335.552 210.385 335.401 210.524 335.278 210.701C335.158 210.874 335.068 211.075 335.008 211.302C334.948 211.526 334.918 211.764 334.918 212.017ZM341.287 213.84L342.689 209.507H343.584L341.742 214.631H341.155L341.287 213.84ZM340.117 209.507L341.562 213.864L341.661 214.631H341.074L339.218 209.507H340.117Z" fill="#7D8FA9"/>
<path d="M455.403 210.634V211.685C455.403 212.251 455.353 212.727 455.252 213.116C455.151 213.504 455.006 213.816 454.816 214.053C454.627 214.29 454.398 214.462 454.13 214.569C453.864 214.674 453.564 214.726 453.23 214.726C452.965 214.726 452.72 214.692 452.496 214.626C452.272 214.56 452.07 214.454 451.89 214.309C451.713 214.161 451.561 213.968 451.435 213.731C451.309 213.494 451.213 213.207 451.146 212.869C451.08 212.532 451.047 212.137 451.047 211.685V210.634C451.047 210.069 451.097 209.596 451.198 209.214C451.303 208.832 451.449 208.525 451.639 208.295C451.828 208.061 452.055 207.894 452.321 207.793C452.589 207.692 452.889 207.641 453.22 207.641C453.489 207.641 453.735 207.675 453.959 207.741C454.186 207.804 454.388 207.907 454.565 208.049C454.742 208.188 454.892 208.374 455.015 208.607C455.141 208.838 455.238 209.12 455.304 209.455C455.37 209.79 455.403 210.183 455.403 210.634ZM454.523 211.828V210.487C454.523 210.178 454.504 209.907 454.466 209.673C454.431 209.436 454.379 209.234 454.31 209.067C454.24 208.899 454.152 208.764 454.044 208.66C453.94 208.555 453.819 208.48 453.68 208.432C453.544 208.382 453.391 208.356 453.22 208.356C453.012 208.356 452.827 208.396 452.666 208.475C452.505 208.551 452.37 208.672 452.259 208.839C452.152 209.007 452.07 209.226 452.013 209.498C451.956 209.769 451.928 210.099 451.928 210.487V211.828C451.928 212.137 451.945 212.41 451.98 212.647C452.018 212.884 452.073 213.089 452.145 213.262C452.218 213.433 452.306 213.573 452.411 213.684C452.515 213.794 452.635 213.876 452.77 213.93C452.909 213.981 453.063 214.006 453.23 214.006C453.445 214.006 453.632 213.965 453.793 213.883C453.954 213.801 454.089 213.673 454.196 213.499C454.306 213.322 454.388 213.097 454.442 212.822C454.496 212.544 454.523 212.213 454.523 211.828ZM461.19 212.311V213.03H456.208V212.514L459.296 207.736H460.011L459.244 209.119L457.203 212.311H461.19ZM460.229 207.736V214.631H459.353V207.736H460.229ZM469.922 207.736V214.631H469.004L465.533 209.313V214.631H464.619V207.736H465.533L469.018 213.068V207.736H469.922ZM471.177 212.126V212.017C471.177 211.648 471.231 211.305 471.338 210.989C471.445 210.671 471.6 210.394 471.802 210.161C472.004 209.924 472.249 209.741 472.536 209.611C472.824 209.479 473.146 209.412 473.502 209.412C473.862 209.412 474.186 209.479 474.473 209.611C474.763 209.741 475.01 209.924 475.212 210.161C475.417 210.394 475.573 210.671 475.681 210.989C475.788 211.305 475.842 211.648 475.842 212.017V212.126C475.842 212.495 475.788 212.838 475.681 213.153C475.573 213.469 475.417 213.745 475.212 213.982C475.01 214.216 474.765 214.399 474.478 214.531C474.194 214.661 473.872 214.726 473.512 214.726C473.152 214.726 472.828 214.661 472.541 214.531C472.254 214.399 472.007 214.216 471.802 213.982C471.6 213.745 471.445 213.469 471.338 213.153C471.231 212.838 471.177 212.495 471.177 212.126ZM472.053 212.017V212.126C472.053 212.382 472.083 212.623 472.143 212.85C472.203 213.075 472.293 213.273 472.413 213.447C472.536 213.621 472.689 213.758 472.872 213.859C473.056 213.957 473.269 214.006 473.512 214.006C473.752 214.006 473.962 213.957 474.142 213.859C474.325 213.758 474.476 213.621 474.596 213.447C474.716 213.273 474.806 213.075 474.866 212.85C474.929 212.623 474.961 212.382 474.961 212.126V212.017C474.961 211.764 474.929 211.526 474.866 211.302C474.806 211.075 474.715 210.874 474.591 210.701C474.471 210.524 474.32 210.385 474.137 210.284C473.957 210.183 473.745 210.132 473.502 210.132C473.262 210.132 473.051 210.183 472.868 210.284C472.688 210.385 472.536 210.524 472.413 210.701C472.293 210.874 472.203 211.075 472.143 211.302C472.083 211.526 472.053 211.764 472.053 212.017ZM478.422 213.84L479.824 209.507H480.719L478.877 214.631H478.29L478.422 213.84ZM477.253 209.507L478.697 213.864L478.796 214.631H478.209L476.353 209.507H477.253Z" fill="#7D8FA9"/>
<path d="M592.539 210.634V211.685C592.539 212.251 592.488 212.727 592.387 213.116C592.286 213.504 592.141 213.816 591.951 214.053C591.762 214.29 591.533 214.462 591.265 214.569C591 214.674 590.7 214.726 590.365 214.726C590.1 214.726 589.855 214.692 589.631 214.626C589.407 214.56 589.205 214.454 589.025 214.309C588.848 214.161 588.697 213.968 588.57 213.731C588.444 213.494 588.348 213.207 588.281 212.869C588.215 212.532 588.182 212.137 588.182 211.685V210.634C588.182 210.069 588.232 209.596 588.333 209.214C588.438 208.832 588.584 208.525 588.774 208.295C588.963 208.061 589.191 207.894 589.456 207.793C589.724 207.692 590.024 207.641 590.355 207.641C590.624 207.641 590.87 207.675 591.094 207.741C591.322 207.804 591.524 207.907 591.7 208.049C591.877 208.188 592.027 208.374 592.15 208.607C592.276 208.838 592.373 209.12 592.439 209.455C592.505 209.79 592.539 210.183 592.539 210.634ZM591.658 211.828V210.487C591.658 210.178 591.639 209.907 591.601 209.673C591.566 209.436 591.514 209.234 591.445 209.067C591.375 208.899 591.287 208.764 591.179 208.66C591.075 208.555 590.954 208.48 590.815 208.432C590.679 208.382 590.526 208.356 590.355 208.356C590.147 208.356 589.962 208.396 589.801 208.475C589.64 208.551 589.505 208.672 589.394 208.839C589.287 209.007 589.205 209.226 589.148 209.498C589.091 209.769 589.063 210.099 589.063 210.487V211.828C589.063 212.137 589.08 212.41 589.115 212.647C589.153 212.884 589.208 213.089 589.281 213.262C589.353 213.433 589.442 213.573 589.546 213.684C589.65 213.794 589.77 213.876 589.906 213.93C590.045 213.981 590.198 214.006 590.365 214.006C590.58 214.006 590.767 213.965 590.928 213.883C591.089 213.801 591.224 213.673 591.331 213.499C591.441 213.322 591.524 213.097 591.577 212.822C591.631 212.544 591.658 212.213 591.658 211.828ZM594.774 211.349L594.073 211.169L594.418 207.736H597.956V208.546H595.162L594.954 210.421C595.08 210.349 595.239 210.281 595.432 210.217C595.628 210.154 595.852 210.123 596.104 210.123C596.423 210.123 596.709 210.178 596.961 210.289C597.214 210.396 597.429 210.551 597.605 210.753C597.785 210.955 597.923 211.198 598.017 211.482C598.112 211.766 598.159 212.083 598.159 212.434C598.159 212.765 598.114 213.07 598.022 213.348C597.934 213.625 597.8 213.869 597.62 214.077C597.44 214.282 597.212 214.442 596.938 214.555C596.666 214.669 596.346 214.726 595.976 214.726C595.699 214.726 595.435 214.688 595.186 214.612C594.939 214.533 594.718 214.415 594.523 214.257C594.33 214.096 594.172 213.897 594.049 213.66C593.929 213.42 593.853 213.139 593.822 212.817H594.655C594.693 213.076 594.769 213.294 594.883 213.471C594.996 213.648 595.145 213.782 595.328 213.873C595.514 213.962 595.73 214.006 595.976 214.006C596.185 214.006 596.369 213.97 596.531 213.897C596.692 213.824 596.827 213.72 596.938 213.584C597.048 213.449 597.132 213.284 597.189 213.092C597.249 212.899 597.279 212.683 597.279 212.443C597.279 212.225 597.249 212.023 597.189 211.837C597.129 211.651 597.039 211.488 596.919 211.349C596.802 211.21 596.658 211.103 596.488 211.027C596.317 210.948 596.122 210.909 595.901 210.909C595.607 210.909 595.385 210.948 595.233 211.027C595.085 211.106 594.932 211.214 594.774 211.349ZM607.057 207.736V214.631H606.139L602.668 209.313V214.631H601.754V207.736H602.668L606.153 213.068V207.736H607.057ZM608.312 212.126V212.017C608.312 211.648 608.366 211.305 608.473 210.989C608.581 210.671 608.735 210.394 608.937 210.161C609.139 209.924 609.384 209.741 609.671 209.611C609.959 209.479 610.281 209.412 610.637 209.412C610.997 209.412 611.321 209.479 611.608 209.611C611.899 209.741 612.145 209.924 612.347 210.161C612.552 210.394 612.708 210.671 612.816 210.989C612.923 211.305 612.977 211.648 612.977 212.017V212.126C612.977 212.495 612.923 212.838 612.816 213.153C612.708 213.469 612.552 213.745 612.347 213.982C612.145 214.216 611.9 214.399 611.613 214.531C611.329 214.661 611.007 214.726 610.647 214.726C610.287 214.726 609.963 214.661 609.676 214.531C609.389 214.399 609.143 214.216 608.937 213.982C608.735 213.745 608.581 213.469 608.473 213.153C608.366 212.838 608.312 212.495 608.312 212.126ZM609.188 212.017V212.126C609.188 212.382 609.218 212.623 609.278 212.85C609.338 213.075 609.428 213.273 609.548 213.447C609.671 213.621 609.824 213.758 610.008 213.859C610.191 213.957 610.404 214.006 610.647 214.006C610.887 214.006 611.097 213.957 611.277 213.859C611.46 213.758 611.611 213.621 611.731 213.447C611.851 213.273 611.941 213.075 612.001 212.85C612.064 212.623 612.096 212.382 612.096 212.126V212.017C612.096 211.764 612.064 211.526 612.001 211.302C611.941 211.075 611.85 210.874 611.727 210.701C611.607 210.524 611.455 210.385 611.272 210.284C611.092 210.183 610.88 210.132 610.637 210.132C610.397 210.132 610.186 210.183 610.003 210.284C609.823 210.385 609.671 210.524 609.548 210.701C609.428 210.874 609.338 211.075 609.278 211.302C609.218 211.526 609.188 211.764 609.188 212.017ZM615.558 213.84L616.959 209.507H617.854L616.012 214.631H615.425L615.558 213.84ZM614.388 209.507L615.832 213.864L615.932 214.631H615.344L613.488 209.507H614.388Z" fill="#7D8FA9"/>
<path d="M729.674 210.634V211.685C729.674 212.251 729.623 212.727 729.522 213.116C729.421 213.504 729.276 213.816 729.086 214.053C728.897 214.29 728.668 214.462 728.4 214.569C728.135 214.674 727.835 214.726 727.5 214.726C727.235 214.726 726.99 214.692 726.766 214.626C726.542 214.56 726.34 214.454 726.16 214.309C725.983 214.161 725.832 213.968 725.705 213.731C725.579 213.494 725.483 213.207 725.416 212.869C725.35 212.532 725.317 212.137 725.317 211.685V210.634C725.317 210.069 725.368 209.596 725.469 209.214C725.573 208.832 725.72 208.525 725.909 208.295C726.098 208.061 726.326 207.894 726.591 207.793C726.859 207.692 727.159 207.641 727.491 207.641C727.759 207.641 728.005 207.675 728.229 207.741C728.457 207.804 728.659 207.907 728.835 208.049C729.012 208.188 729.162 208.374 729.285 208.607C729.412 208.838 729.508 209.12 729.574 209.455C729.641 209.79 729.674 210.183 729.674 210.634ZM728.793 211.828V210.487C728.793 210.178 728.774 209.907 728.736 209.673C728.701 209.436 728.649 209.234 728.58 209.067C728.51 208.899 728.422 208.764 728.315 208.66C728.21 208.555 728.089 208.48 727.95 208.432C727.814 208.382 727.661 208.356 727.491 208.356C727.282 208.356 727.098 208.396 726.937 208.475C726.776 208.551 726.64 208.672 726.529 208.839C726.422 209.007 726.34 209.226 726.283 209.498C726.226 209.769 726.198 210.099 726.198 210.487V211.828C726.198 212.137 726.215 212.41 726.25 212.647C726.288 212.884 726.343 213.089 726.416 213.262C726.488 213.433 726.577 213.573 726.681 213.684C726.785 213.794 726.905 213.876 727.041 213.93C727.18 213.981 727.333 214.006 727.5 214.006C727.715 214.006 727.903 213.965 728.064 213.883C728.225 213.801 728.359 213.673 728.466 213.499C728.577 213.322 728.659 213.097 728.712 212.822C728.766 212.544 728.793 212.213 728.793 211.828ZM734.163 207.727H734.239V208.47H734.163C733.699 208.47 733.31 208.546 732.998 208.697C732.685 208.846 732.438 209.046 732.254 209.299C732.071 209.548 731.939 209.829 731.857 210.142C731.778 210.454 731.738 210.772 731.738 211.094V212.107C731.738 212.413 731.775 212.685 731.847 212.921C731.92 213.155 732.019 213.352 732.146 213.513C732.272 213.674 732.414 213.796 732.572 213.878C732.733 213.96 732.9 214.001 733.074 214.001C733.276 214.001 733.456 213.963 733.614 213.887C733.771 213.809 733.904 213.7 734.011 213.561C734.122 213.419 734.205 213.251 734.262 213.059C734.319 212.866 734.348 212.655 734.348 212.424C734.348 212.219 734.322 212.022 734.272 211.832C734.221 211.64 734.144 211.469 734.04 211.321C733.936 211.169 733.805 211.051 733.647 210.966C733.492 210.877 733.307 210.833 733.093 210.833C732.85 210.833 732.622 210.893 732.411 211.013C732.202 211.13 732.03 211.285 731.895 211.477C731.762 211.667 731.686 211.873 731.667 212.097L731.203 212.093C731.247 211.739 731.329 211.438 731.449 211.188C731.573 210.936 731.724 210.73 731.904 210.573C732.087 210.412 732.291 210.295 732.515 210.222C732.742 210.146 732.982 210.109 733.235 210.109C733.579 210.109 733.876 210.173 734.125 210.303C734.374 210.432 734.58 210.606 734.741 210.824C734.902 211.038 735.02 211.281 735.096 211.553C735.175 211.821 735.214 212.097 735.214 212.382C735.214 212.707 735.168 213.011 735.077 213.296C734.985 213.58 734.848 213.829 734.665 214.044C734.485 214.258 734.262 214.426 733.997 214.546C733.732 214.666 733.424 214.726 733.074 214.726C732.701 214.726 732.376 214.65 732.098 214.498C731.82 214.344 731.59 214.138 731.407 213.883C731.224 213.627 731.086 213.343 730.995 213.03C730.903 212.718 730.858 212.401 730.858 212.079V211.667C730.858 211.18 730.906 210.704 731.004 210.236C731.102 209.769 731.271 209.346 731.511 208.967C731.754 208.588 732.09 208.287 732.52 208.063C732.949 207.839 733.497 207.727 734.163 207.727ZM744.193 207.736V214.631H743.274L739.803 209.313V214.631H738.889V207.736H739.803L743.288 213.068V207.736H744.193ZM745.447 212.126V212.017C745.447 211.648 745.501 211.305 745.608 210.989C745.716 210.671 745.87 210.394 746.072 210.161C746.275 209.924 746.519 209.741 746.806 209.611C747.094 209.479 747.416 209.412 747.773 209.412C748.132 209.412 748.456 209.479 748.743 209.611C749.034 209.741 749.28 209.924 749.482 210.161C749.687 210.394 749.843 210.671 749.951 210.989C750.058 211.305 750.112 211.648 750.112 212.017V212.126C750.112 212.495 750.058 212.838 749.951 213.153C749.843 213.469 749.687 213.745 749.482 213.982C749.28 214.216 749.035 214.399 748.748 214.531C748.464 214.661 748.142 214.726 747.782 214.726C747.422 214.726 747.099 214.661 746.811 214.531C746.524 214.399 746.278 214.216 746.072 213.982C745.87 213.745 745.716 213.469 745.608 213.153C745.501 212.838 745.447 212.495 745.447 212.126ZM746.323 212.017V212.126C746.323 212.382 746.353 212.623 746.413 212.85C746.473 213.075 746.563 213.273 746.683 213.447C746.806 213.621 746.96 213.758 747.143 213.859C747.326 213.957 747.539 214.006 747.782 214.006C748.022 214.006 748.232 213.957 748.412 213.859C748.595 213.758 748.746 213.621 748.866 213.447C748.986 213.273 749.076 213.075 749.136 212.85C749.199 212.623 749.231 212.382 749.231 212.126V212.017C749.231 211.764 749.199 211.526 749.136 211.302C749.076 211.075 748.985 210.874 748.862 210.701C748.742 210.524 748.59 210.385 748.407 210.284C748.227 210.183 748.016 210.132 747.773 210.132C747.533 210.132 747.321 210.183 747.138 210.284C746.958 210.385 746.806 210.524 746.683 210.701C746.563 210.874 746.473 211.075 746.413 211.302C746.353 211.526 746.323 211.764 746.323 212.017ZM752.693 213.84L754.094 209.507H754.989L753.147 214.631H752.56L752.693 213.84ZM751.523 209.507L752.967 213.864L753.067 214.631H752.48L750.623 209.507H751.523Z" fill="#7D8FA9"/>
<path d="M866.809 210.634V211.685C866.809 212.251 866.758 212.727 866.657 213.116C866.556 213.504 866.411 213.816 866.222 214.053C866.032 214.29 865.803 214.462 865.535 214.569C865.27 214.674 864.97 214.726 864.635 214.726C864.37 214.726 864.125 214.692 863.901 214.626C863.677 214.56 863.475 214.454 863.295 214.309C863.118 214.161 862.967 213.968 862.84 213.731C862.714 213.494 862.618 213.207 862.552 212.869C862.485 212.532 862.452 212.137 862.452 211.685V210.634C862.452 210.069 862.503 209.596 862.604 209.214C862.708 208.832 862.855 208.525 863.044 208.295C863.234 208.061 863.461 207.894 863.726 207.793C863.994 207.692 864.294 207.641 864.626 207.641C864.894 207.641 865.14 207.675 865.364 207.741C865.592 207.804 865.794 207.907 865.971 208.049C866.147 208.188 866.297 208.374 866.42 208.607C866.547 208.838 866.643 209.12 866.709 209.455C866.776 209.79 866.809 210.183 866.809 210.634ZM865.928 211.828V210.487C865.928 210.178 865.909 209.907 865.871 209.673C865.836 209.436 865.784 209.234 865.715 209.067C865.645 208.899 865.557 208.764 865.45 208.66C865.346 208.555 865.224 208.48 865.085 208.432C864.949 208.382 864.796 208.356 864.626 208.356C864.417 208.356 864.233 208.396 864.072 208.475C863.911 208.551 863.775 208.672 863.664 208.839C863.557 209.007 863.475 209.226 863.418 209.498C863.361 209.769 863.333 210.099 863.333 210.487V211.828C863.333 212.137 863.35 212.41 863.385 212.647C863.423 212.884 863.478 213.089 863.551 213.262C863.623 213.433 863.712 213.573 863.816 213.684C863.92 213.794 864.04 213.876 864.176 213.93C864.315 213.981 864.468 214.006 864.635 214.006C864.85 214.006 865.038 213.965 865.199 213.883C865.36 213.801 865.494 213.673 865.601 213.499C865.712 213.322 865.794 213.097 865.847 212.822C865.901 212.544 865.928 212.213 865.928 211.828ZM872.392 207.736V208.229L869.536 214.631H868.613L871.464 208.456H867.732V207.736H872.392ZM881.328 207.736V214.631H880.409L876.938 209.313V214.631H876.024V207.736H876.938L880.423 213.068V207.736H881.328ZM882.583 212.126V212.017C882.583 211.648 882.636 211.305 882.744 210.989C882.851 210.671 883.006 210.394 883.208 210.161C883.41 209.924 883.654 209.741 883.942 209.611C884.229 209.479 884.551 209.412 884.908 209.412C885.268 209.412 885.591 209.479 885.878 209.611C886.169 209.741 886.415 209.924 886.617 210.161C886.822 210.394 886.979 210.671 887.086 210.989C887.193 211.305 887.247 211.648 887.247 212.017V212.126C887.247 212.495 887.193 212.838 887.086 213.153C886.979 213.469 886.822 213.745 886.617 213.982C886.415 214.216 886.17 214.399 885.883 214.531C885.599 214.661 885.277 214.726 884.917 214.726C884.557 214.726 884.234 214.661 883.946 214.531C883.659 214.399 883.413 214.216 883.208 213.982C883.006 213.745 882.851 213.469 882.744 213.153C882.636 212.838 882.583 212.495 882.583 212.126ZM883.459 212.017V212.126C883.459 212.382 883.489 212.623 883.549 212.85C883.609 213.075 883.699 213.273 883.818 213.447C883.942 213.621 884.095 213.758 884.278 213.859C884.461 213.957 884.674 214.006 884.917 214.006C885.157 214.006 885.367 213.957 885.547 213.859C885.73 213.758 885.882 213.621 886.002 213.447C886.121 213.273 886.211 213.075 886.271 212.85C886.335 212.623 886.366 212.382 886.366 212.126V212.017C886.366 211.764 886.335 211.526 886.271 211.302C886.211 211.075 886.12 210.874 885.997 210.701C885.877 210.524 885.725 210.385 885.542 210.284C885.362 210.183 885.151 210.132 884.908 210.132C884.668 210.132 884.456 210.183 884.273 210.284C884.093 210.385 883.942 210.524 883.818 210.701C883.699 210.874 883.609 211.075 883.549 211.302C883.489 211.526 883.459 211.764 883.459 212.017ZM889.828 213.84L891.229 209.507H892.124L890.282 214.631H889.695L889.828 213.84ZM888.658 209.507L890.102 213.864L890.202 214.631H889.615L887.758 209.507H888.658Z" fill="#7D8FA9"/>
<defs>
<linearGradient id="paint0_linear_311_173" x1="466" y1="-30.5" x2="466" y2="218" gradientUnits="userSpaceOnUse">
<stop stop-color="#005CB1"/>
<stop offset="1" stop-color="#2BB2FE" stop-opacity="0"/>
</linearGradient>
<linearGradient id="paint1_linear_311_173" x1="465.698" y1="199.165" x2="465.698" y2="18.1327" gradientUnits="userSpaceOnUse">
<stop stop-color="#00235D" stop-opacity="0"/>
<stop offset="1" stop-color="#00235D"/>
</linearGradient>
</defs>
</svg>
