<svg width="184" height="53" viewBox="0 0 184 53" fill="none" xmlns="http://www.w3.org/2000/svg">
<path d="M92.626 43H88.0643C87.5526 43 87.1286 42.8757 86.7923 42.6272C86.4707 42.364 86.2367 42.0423 86.0905 41.6622L83.722 35.1926H70.5853L68.2167 41.6622C68.0998 41.9985 67.8658 42.3055 67.5149 42.5833C67.1787 42.8611 66.762 43 66.2649 43H61.6813L74.1381 11.2877H80.1691L92.626 43ZM72.0985 31.0257H82.2087L78.3489 20.4768C78.1734 20.009 77.976 19.4607 77.7567 18.832C77.552 18.1887 77.3473 17.4942 77.1427 16.7486C76.938 17.4942 76.7333 18.1887 76.5286 18.832C76.3385 19.4753 76.1484 20.0382 75.9584 20.5207L72.0985 31.0257ZM111.419 43C110.717 43 110.257 42.671 110.037 42.0131L109.599 39.8419C109.131 40.3683 108.641 40.8434 108.129 41.2674C107.618 41.6914 107.062 42.057 106.463 42.364C105.878 42.671 105.242 42.905 104.555 43.0658C103.882 43.2412 103.151 43.329 102.362 43.329C101.133 43.329 100.008 43.0731 98.9843 42.5614C97.9608 42.0497 97.0763 41.3113 96.3306 40.3463C95.5996 39.3668 95.0294 38.1606 94.62 36.7277C94.2252 35.2949 94.0278 33.6574 94.0278 31.8152C94.0278 30.1484 94.2545 28.5986 94.7077 27.1658C95.1609 25.733 95.8116 24.4902 96.6596 23.4375C97.5076 22.3848 98.5237 21.5661 99.708 20.9812C100.892 20.3818 102.223 20.0821 103.699 20.0821C104.957 20.0821 106.031 20.2868 106.923 20.6961C107.815 21.0909 108.612 21.6246 109.314 22.2971V10.4105H114.731V43H111.419ZM104.204 39.0305C105.33 39.0305 106.287 38.7966 107.077 38.3287C107.866 37.8608 108.612 37.1956 109.314 36.333V26.2447C108.7 25.499 108.027 24.9727 107.296 24.6657C106.58 24.3586 105.805 24.2051 104.971 24.2051C104.153 24.2051 103.407 24.3586 102.734 24.6657C102.077 24.9727 101.514 25.4406 101.046 26.0692C100.593 26.6833 100.242 27.4728 99.9931 28.4378C99.7445 29.3881 99.6203 30.5139 99.6203 31.8152C99.6203 33.131 99.7226 34.2495 99.9273 35.1706C100.147 36.0771 100.454 36.8228 100.848 37.4076C101.243 37.9778 101.726 38.3945 102.296 38.6577C102.866 38.9062 103.502 39.0305 104.204 39.0305ZM129.899 20.1479C131.317 20.1479 132.618 20.3745 133.803 20.8277C135.001 21.281 136.032 21.9462 136.895 22.8234C137.757 23.6861 138.43 24.7534 138.912 26.0254C139.395 27.2828 139.636 28.7229 139.636 30.3458C139.636 30.7552 139.614 31.0988 139.57 31.3766C139.541 31.6397 139.475 31.8517 139.373 32.0126C139.285 32.1588 139.161 32.2684 139 32.3415C138.839 32.4 138.635 32.4292 138.386 32.4292H124.482C124.643 34.7393 125.264 36.4353 126.346 37.5172C127.428 38.5992 128.861 39.1401 130.644 39.1401C131.522 39.1401 132.275 39.0378 132.903 38.8331C133.547 38.6284 134.102 38.4018 134.57 38.1532C135.053 37.9047 135.469 37.6781 135.82 37.4734C136.186 37.2687 136.537 37.1663 136.873 37.1663C137.092 37.1663 137.282 37.2102 137.443 37.2979C137.604 37.3857 137.743 37.5099 137.86 37.6708L139.439 39.6446C138.839 40.3463 138.167 40.9385 137.421 41.421C136.675 41.8888 135.893 42.269 135.075 42.5614C134.27 42.8392 133.444 43.0366 132.596 43.1535C131.763 43.2705 130.951 43.329 130.162 43.329C128.598 43.329 127.143 43.0731 125.798 42.5614C124.453 42.035 123.283 41.2674 122.289 40.2586C121.295 39.2352 120.512 37.9778 119.942 36.4865C119.372 34.9806 119.087 33.2407 119.087 31.2669C119.087 29.7317 119.335 28.2916 119.832 26.9465C120.33 25.5868 121.039 24.4098 121.96 23.4156C122.895 22.4068 124.029 21.6099 125.359 21.0251C126.704 20.4403 128.217 20.1479 129.899 20.1479ZM130.008 24.0297C128.429 24.0297 127.194 24.4756 126.302 25.3674C125.41 26.2593 124.84 27.524 124.591 29.1615H134.767C134.767 28.4597 134.672 27.8018 134.482 27.1877C134.292 26.559 134 26.0108 133.605 25.5429C133.21 25.075 132.713 24.7095 132.114 24.4463C131.514 24.1686 130.813 24.0297 130.008 24.0297ZM144.03 50.3469V20.4988H147.342C147.693 20.4988 147.992 20.5792 148.241 20.74C148.49 20.9008 148.65 21.1494 148.723 21.4857L149.162 23.5691C150.069 22.531 151.107 21.6903 152.276 21.047C153.461 20.4037 154.842 20.0821 156.421 20.0821C157.649 20.0821 158.768 20.3379 159.777 20.8497C160.8 21.3614 161.677 22.107 162.408 23.0866C163.154 24.0516 163.724 25.2505 164.119 26.6833C164.528 28.1015 164.733 29.7317 164.733 31.5739C164.733 33.2553 164.507 34.8124 164.053 36.2452C163.6 37.6781 162.949 38.9208 162.101 39.9735C161.268 41.0262 160.252 41.8523 159.053 42.4517C157.869 43.0366 156.538 43.329 155.062 43.329C153.79 43.329 152.708 43.1389 151.816 42.7588C150.939 42.364 150.149 41.823 149.447 41.1359V50.3469H144.03ZM154.557 24.3586C153.431 24.3586 152.466 24.5999 151.662 25.0823C150.873 25.5502 150.134 26.2154 149.447 27.0781V37.1663C150.061 37.9266 150.727 38.4603 151.443 38.7673C152.174 39.0597 152.956 39.2059 153.79 39.2059C154.608 39.2059 155.347 39.0524 156.005 38.7454C156.677 38.4383 157.24 37.9705 157.693 37.3418C158.161 36.7131 158.519 35.9236 158.768 34.9732C159.016 34.0083 159.141 32.8752 159.141 31.5739C159.141 30.2581 159.031 29.1469 158.812 28.2404C158.607 27.3193 158.307 26.5737 157.913 26.0034C157.518 25.4332 157.035 25.0166 156.465 24.7534C155.91 24.4902 155.274 24.3586 154.557 24.3586ZM176.222 43.3509C174.277 43.3509 172.779 42.8026 171.726 41.7061C170.673 40.5949 170.147 39.067 170.147 37.1225V24.556H167.866C167.574 24.556 167.318 24.461 167.099 24.2709C166.894 24.0808 166.792 23.7957 166.792 23.4156V21.2663L170.41 20.6742L171.551 14.5335C171.609 14.2411 171.741 14.0145 171.945 13.8537C172.165 13.6928 172.435 13.6124 172.757 13.6124H175.564V20.6961H181.485V24.556H175.564V36.7497C175.564 37.4514 175.739 37.9997 176.09 38.3945C176.441 38.7892 176.909 38.9866 177.494 38.9866C177.83 38.9866 178.108 38.9501 178.327 38.877C178.561 38.7892 178.759 38.7015 178.919 38.6138C179.095 38.5261 179.248 38.4457 179.38 38.3726C179.512 38.2848 179.643 38.241 179.775 38.241C179.936 38.241 180.067 38.2848 180.17 38.3726C180.272 38.4457 180.382 38.5626 180.498 38.7234L182.121 41.3552C181.332 42.0131 180.425 42.5102 179.402 42.8465C178.378 43.1828 177.318 43.3509 176.222 43.3509Z" fill="white"/>
<path d="M10.4821 34.8042C10.4821 34.091 9.90438 33.5133 9.19116 33.5133H2.73669C2.02348 33.5133 1.4458 34.091 1.4458 34.8042V45.2174C1.4458 45.9306 2.02348 46.5083 2.73669 46.5083H9.19116C9.90438 46.5083 10.4821 45.9306 10.4821 45.2174V34.8042Z" fill="#2279CC"/>
<path d="M20.8953 25.7679H14.4408C13.7276 25.7679 13.1499 26.3456 13.1499 27.0588V45.2174C13.1499 45.9306 13.7276 46.5083 14.4408 46.5083H20.8953C21.6085 46.5083 22.1862 45.9306 22.1862 45.2174V27.0588C22.1862 26.3456 21.6085 25.7679 20.8953 25.7679Z" fill="#2279CC"/>
<path d="M32.5134 23.1862H26.059C25.3457 23.1862 24.7681 23.7638 24.7681 24.4771V45.2174C24.7681 45.9306 25.3457 46.5083 26.059 46.5083H32.5134C33.2266 46.5083 33.8043 45.9306 33.8043 45.2174V24.4771C33.8043 23.7638 33.2266 23.1862 32.5134 23.1862Z" fill="#2279CC"/>
<path d="M44.2175 12.859H37.7631C37.0498 12.859 36.4722 13.4367 36.4722 14.1499V45.2174C36.4722 45.9306 37.0498 46.5083 37.7631 46.5083H44.2175C44.9307 46.5083 45.5084 45.9306 45.5084 45.2174V14.1499C45.5084 13.4367 44.9307 12.859 44.2175 12.859Z" fill="#2279CC"/>
<path d="M6.04993 30.8455C8.18528 30.8455 9.92261 29.1081 9.92261 26.9728C9.92261 26.61 9.85645 26.266 9.76286 25.9331L14.7925 22.3826C15.424 22.8309 16.191 23.1001 17.0225 23.1001C18.9817 23.1001 20.5883 21.6328 20.843 19.7422L25.9932 18.6578C26.6749 19.7691 27.89 20.5183 29.286 20.5183C31.4214 20.5183 33.1587 18.781 33.1587 16.6456C33.1587 16.1293 33.0527 15.6382 32.8688 15.1875L39.0471 9.69578C39.6011 10.0016 40.2277 10.1912 40.9041 10.1912C43.0394 10.1912 44.7767 8.45383 44.7767 6.31848C44.7767 4.18313 43.0394 2.4458 40.9041 2.4458C38.7687 2.4458 37.0314 4.18313 37.0314 6.31848C37.0314 6.83484 37.1373 7.32592 37.3213 7.77665L31.143 13.2683C30.589 12.9625 29.9624 12.7729 29.286 12.7729C27.3268 12.7729 25.7202 14.2403 25.4655 16.1309L20.3154 17.2152C19.6336 16.104 18.4186 15.3547 17.0225 15.3547C14.8872 15.3547 13.1498 17.0921 13.1498 19.2274C13.1498 19.5902 13.216 19.9342 13.3096 20.2671L8.27995 23.8176C7.64848 23.3693 6.88148 23.1001 6.04993 23.1001C3.91457 23.1001 2.17725 24.8374 2.17725 26.9728C2.17725 29.1081 3.91457 30.8455 6.04993 30.8455Z" fill="#2279CC"/>
</svg>
