<svg width="22" height="30" viewBox="0 0 22 30" fill="none" xmlns="http://www.w3.org/2000/svg">
<path d="M10.8649 0C4.87395 0 0 4.87395 0 10.8648C0 18.2997 9.72299 29.2144 10.137 29.6755C10.5258 30.1085 11.2046 30.1078 11.5928 29.6755C12.0067 29.2144 21.7297 18.2997 21.7297 10.8648C21.7296 4.87395 16.8557 0 10.8649 0ZM10.8649 16.3312C7.85068 16.3312 5.39853 13.879 5.39853 10.8648C5.39853 7.85063 7.85074 5.39848 10.8649 5.39848C13.879 5.39848 16.3311 7.85068 16.3311 10.8649C16.3311 13.879 13.879 16.3312 10.8649 16.3312Z" fill="url(#paint0_linear_49_2539)"/>
<defs>
<linearGradient id="paint0_linear_49_2539" x1="10.8649" y1="-12.101" x2="10.8649" y2="30" gradientUnits="userSpaceOnUse">
<stop stop-color="#0C5293"/>
<stop offset="1" stop-color="#43A5FF"/>
</linearGradient>
</defs>
</svg>
